# Blender 5.2.1 LTS
# www.blender.org
o Sphere
v 0.000000 -0.105308 -0.387037
v 0.000000 -0.165103 -0.075465
v 0.000000 -0.206815 0.171871
v 0.000000 0.000027 0.415517
v 0.020550 -0.103284 -0.387037
v 0.032215 -0.161930 -0.075465
v 0.044838 -0.225387 0.077091
v 0.040353 -0.202840 0.171871
v 0.034317 -0.172498 0.254947
v 0.026963 -0.135525 0.323125
v 0.018572 -0.093343 0.373786
v 0.009468 -0.047572 0.404983
v 0.040310 -0.097290 -0.387037
v 0.063193 -0.152533 -0.075465
v 0.087952 -0.212309 0.077091
v 0.079155 -0.191070 0.171871
v 0.067316 -0.162488 0.254947
v 0.052890 -0.127660 0.323125
v 0.036431 -0.087925 0.373786
v 0.018572 -0.044811 0.404983
v 0.058521 -0.087556 -0.387037
v 0.091741 -0.137274 -0.075465
v 0.127687 -0.191070 0.077091
v 0.114915 -0.171956 0.171871
v 0.097727 -0.146232 0.254947
v 0.076784 -0.114888 0.323125
v 0.052890 -0.079128 0.373786
v 0.026963 -0.040326 0.404983
v 0.074483 -0.074456 -0.387037
v 0.116765 -0.116737 -0.075465
v 0.162515 -0.162488 0.077091
v 0.146259 -0.146232 0.171871
v 0.124383 -0.124356 0.254947
v 0.097727 -0.097700 0.323125
v 0.067316 -0.067289 0.373786
v 0.034317 -0.034290 0.404983
v 0.087583 -0.058494 -0.387037
v 0.137301 -0.091714 -0.075465
v 0.191097 -0.127660 0.077091
v 0.171983 -0.114888 0.171871
v 0.146259 -0.097700 0.254947
v 0.114915 -0.076757 0.323125
v 0.079155 -0.052863 0.373786
v 0.040353 -0.026936 0.404983
v 0.097317 -0.040283 -0.387037
v 0.152560 -0.063165 -0.075465
v 0.212336 -0.087925 0.077091
v 0.191097 -0.079128 0.171871
v 0.162515 -0.067289 0.254947
v 0.127687 -0.052863 0.323125
v 0.087952 -0.036404 0.373786
v 0.044838 -0.018545 0.404983
v 0.103311 -0.020523 -0.387037
v 0.161957 -0.032188 -0.075465
v 0.225414 -0.044811 0.077091
v 0.202868 -0.040326 0.171871
v 0.172525 -0.034290 0.254947
v 0.135552 -0.026936 0.323125
v 0.093370 -0.018545 0.373786
v 0.047599 -0.009441 0.404983
v 0.105335 0.000027 -0.387037
v 0.165130 0.000027 -0.075465
v 0.229831 0.000027 0.077091
v 0.206842 0.000027 0.171871
v 0.175905 0.000027 0.254947
v 0.138207 0.000027 0.323125
v 0.095199 0.000027 0.373786
v 0.048532 0.000027 0.404983
v 0.103311 0.020577 -0.387037
v 0.161957 0.032242 -0.075465
v 0.225414 0.044865 0.077091
v 0.202868 0.040380 0.171871
v 0.172525 0.034344 0.254947
v 0.135552 0.026990 0.323125
v 0.093370 0.018600 0.373786
v 0.047599 0.009495 0.404983
v 0.097317 0.040337 -0.387037
v 0.152560 0.063220 -0.075465
v 0.212336 0.087979 0.077091
v 0.191097 0.079182 0.171871
v 0.162515 0.067343 0.254947
v 0.127687 0.052917 0.323125
v 0.087952 0.036458 0.373786
v 0.044838 0.018600 0.404983
v 0.087583 0.058548 -0.387037
v 0.137301 0.091769 -0.075465
v 0.191097 0.127714 0.077091
v 0.171983 0.114942 0.171871
v 0.146259 0.097755 0.254947
v 0.114915 0.076811 0.323125
v 0.079155 0.052917 0.373786
v 0.040353 0.026990 0.404983
v 0.074483 0.074510 -0.387037
v 0.116765 0.116792 -0.075465
v 0.162515 0.162542 0.077091
v 0.146259 0.146287 0.171871
v 0.124383 0.124411 0.254947
v 0.097727 0.097755 0.323125
v 0.067316 0.067343 0.373786
v 0.034317 0.034344 0.404983
v 0.058521 0.087610 -0.387037
v 0.091741 0.137328 -0.075465
v 0.127687 0.191124 0.077091
v 0.114915 0.172010 0.171871
v 0.097727 0.146287 0.254947
v 0.076784 0.114942 0.323125
v 0.052890 0.079182 0.373786
v 0.026963 0.040380 0.404983
v 0.040310 0.097344 -0.387037
v 0.063193 0.152587 -0.075465
v 0.087952 0.212363 0.077091
v 0.079155 0.191124 0.171871
v 0.067316 0.162542 0.254947
v 0.052890 0.127714 0.323125
v 0.036431 0.087979 0.373786
v 0.018572 0.044865 0.404983
v 0.020550 0.103338 -0.387037
v 0.032215 0.161984 -0.075465
v 0.044838 0.225442 0.077091
v 0.040353 0.202895 0.171871
v 0.034317 0.172552 0.254947
v 0.026963 0.135579 0.323125
v 0.018572 0.093397 0.373786
v 0.009468 0.047627 0.404983
v -0.000000 0.105362 -0.387037
v -0.000000 0.165157 -0.075465
v 0.000000 0.229858 0.077091
v -0.000000 0.206869 0.171871
v -0.000000 0.175932 0.254947
v -0.000000 0.138234 0.323125
v -0.000000 0.095226 0.373786
v -0.000000 0.048559 0.404983
v -0.020550 0.103338 -0.387037
v -0.032215 0.161984 -0.075465
v -0.044838 0.225441 0.077091
v -0.040353 0.202895 0.171871
v -0.034317 0.172552 0.254947
v -0.026963 0.135579 0.323125
v -0.018572 0.093397 0.373786
v -0.009468 0.047627 0.404983
v -0.040310 0.097344 -0.387037
v -0.063193 0.152587 -0.075465
v -0.087952 0.212363 0.077091
v -0.079155 0.191124 0.171871
v -0.067316 0.162542 0.254947
v -0.052890 0.127714 0.323125
v -0.036431 0.087979 0.373786
v -0.018572 0.044865 0.404983
v -0.058521 0.087610 -0.387037
v -0.091741 0.137328 -0.075465
v -0.127687 0.191124 0.077091
v -0.114915 0.172010 0.171871
v -0.097727 0.146287 0.254947
v -0.076784 0.114942 0.323125
v -0.052890 0.079182 0.373786
v -0.026963 0.040380 0.404983
v -0.074483 0.074510 -0.387037
v -0.116765 0.116792 -0.075465
v -0.162515 0.162542 0.077091
v -0.146259 0.146286 0.171871
v -0.124383 0.124410 0.254947
v -0.097727 0.097754 0.323125
v -0.067316 0.067343 0.373786
v -0.034317 0.034344 0.404983
v -0.087583 0.058548 -0.387037
v -0.137301 0.091768 -0.075465
v -0.191097 0.127714 0.077091
v -0.171983 0.114942 0.171871
v -0.146259 0.097755 0.254947
v -0.114915 0.076811 0.323125
v -0.079155 0.052917 0.373786
v -0.040353 0.026990 0.404983
v -0.097317 0.040337 -0.387037
v -0.152560 0.063220 -0.075465
v -0.212336 0.087979 0.077091
v -0.191097 0.079182 0.171871
v -0.162515 0.067343 0.254947
v -0.127687 0.052917 0.323125
v -0.087952 0.036458 0.373786
v -0.044838 0.018599 0.404983
v -0.103311 0.020577 -0.387037
v -0.161957 0.032242 -0.075465
v -0.225414 0.044865 0.077091
v -0.202868 0.040380 0.171871
v -0.172525 0.034344 0.254947
v -0.135552 0.026990 0.323125
v -0.093370 0.018599 0.373786
v -0.047599 0.009495 0.404983
v -0.105335 0.000027 -0.387037
v -0.165130 0.000027 -0.075465
v -0.229830 0.000027 0.077091
v -0.206842 0.000027 0.171871
v -0.175905 0.000027 0.254947
v -0.138207 0.000027 0.323125
v -0.095199 0.000027 0.373786
v -0.048532 0.000027 0.404983
v -0.103311 -0.020523 -0.387037
v -0.161957 -0.032188 -0.075465
v -0.225414 -0.044811 0.077091
v -0.202867 -0.040326 0.171871
v -0.172525 -0.034290 0.254947
v -0.135552 -0.026936 0.323125
v -0.093370 -0.018545 0.373786
v -0.047599 -0.009441 0.404983
v -0.097317 -0.040283 -0.387037
v -0.152560 -0.063165 -0.075465
v -0.212336 -0.087925 0.077091
v -0.191097 -0.079128 0.171871
v -0.162515 -0.067289 0.254947
v -0.127687 -0.052863 0.323125
v -0.087952 -0.036404 0.373786
v -0.044838 -0.018545 0.404983
v -0.087583 -0.058494 -0.387037
v -0.137301 -0.091714 -0.075465
v -0.191097 -0.127660 0.077091
v -0.171983 -0.114888 0.171871
v -0.146259 -0.097700 0.254947
v -0.114915 -0.076757 0.323125
v -0.079155 -0.052863 0.373786
v -0.040353 -0.026936 0.404983
v -0.074483 -0.074456 -0.387037
v -0.116765 -0.116737 -0.075465
v -0.162515 -0.162487 0.077091
v -0.146259 -0.146232 0.171871
v -0.124383 -0.124356 0.254947
v -0.097727 -0.097700 0.323125
v -0.067316 -0.067289 0.373786
v -0.034317 -0.034290 0.404983
v -0.058521 -0.087556 -0.387037
v -0.091741 -0.137273 -0.075465
v -0.127687 -0.191070 0.077091
v -0.114915 -0.171956 0.171871
v -0.097727 -0.146232 0.254947
v -0.076784 -0.114888 0.323125
v -0.052890 -0.079128 0.373786
v -0.026963 -0.040326 0.404983
v -0.040310 -0.097290 -0.387037
v -0.063192 -0.152533 -0.075465
v -0.087952 -0.212308 0.077091
v -0.079155 -0.191070 0.171871
v -0.067316 -0.162488 0.254947
v -0.052890 -0.127660 0.323125
v -0.036431 -0.087925 0.373786
v -0.018572 -0.044811 0.404983
v -0.020550 -0.103284 -0.387037
v -0.032215 -0.161930 -0.075465
v -0.044838 -0.225387 0.077091
v -0.040353 -0.202840 0.171871
v -0.034317 -0.172498 0.254947
v -0.026963 -0.135525 0.323125
v -0.018572 -0.093343 0.373786
v -0.009468 -0.047572 0.404983
v 0.000000 -0.229803 0.077091
v 0.000000 -0.175877 0.254947
v 0.000000 -0.138180 0.323125
v 0.000000 -0.095172 0.373786
v 0.000000 -0.048505 0.404983
v 0.035522 -0.178551 -0.035506
v 0.038677 -0.194416 0.002633
v 0.048299 -0.242788 0.040772
v 0.069678 -0.168190 -0.035506
v 0.075868 -0.183134 0.002633
v 0.094742 -0.228699 0.040772
v 0.101157 -0.151364 -0.035506
v 0.110143 -0.164814 0.002633
v 0.137543 -0.205821 0.040772
v 0.128748 -0.128721 -0.035506
v 0.140186 -0.140158 0.002633
v 0.175060 -0.175032 0.040772
v 0.151392 -0.101130 -0.035506
v 0.164841 -0.110116 0.002633
v 0.205848 -0.137516 0.040772
v 0.168217 -0.069651 -0.035506
v 0.183161 -0.075841 0.002633
v 0.228726 -0.094714 0.040772
v 0.178579 -0.035494 -0.035506
v 0.194443 -0.038650 0.002633
v 0.242815 -0.048272 0.040772
v 0.182077 0.000027 -0.035506
v 0.198252 0.000027 0.002633
v 0.247572 0.000027 0.040772
v 0.178579 0.035549 -0.035506
v 0.194443 0.038704 0.002633
v 0.242815 0.048326 0.040772
v 0.168217 0.069705 -0.035506
v 0.183161 0.075895 0.002633
v 0.228726 0.094769 0.040772
v 0.151392 0.101184 -0.035506
v 0.164841 0.110170 0.002633
v 0.205848 0.137571 0.040772
v 0.128748 0.128775 -0.035506
v 0.140186 0.140213 0.002633
v 0.175060 0.175087 0.040772
v 0.101157 0.151419 -0.035506
v 0.110143 0.164868 0.002633
v 0.137543 0.205875 0.040772
v 0.069678 0.168244 -0.035506
v 0.075868 0.183188 0.002633
v 0.094742 0.228754 0.040772
v 0.035521 0.178606 -0.035506
v 0.038677 0.194470 0.002633
v 0.048299 0.242842 0.040772
v -0.000000 0.182104 -0.035506
v -0.000000 0.198279 0.002633
v -0.000000 0.247599 0.040772
v -0.035521 0.178606 -0.035506
v -0.038677 0.194470 0.002633
v -0.048299 0.242842 0.040772
v -0.069678 0.168244 -0.035506
v -0.075868 0.183188 0.002633
v -0.094742 0.228754 0.040772
v -0.101157 0.151419 -0.035506
v -0.110143 0.164868 0.002633
v -0.137543 0.205875 0.040772
v -0.128748 0.128775 -0.035506
v -0.140185 0.140213 0.002633
v -0.175060 0.175087 0.040772
v -0.151392 0.101184 -0.035506
v -0.164841 0.110170 0.002633
v -0.205848 0.137571 0.040772
v -0.168217 0.069705 -0.035506
v -0.183161 0.075895 0.002633
v -0.228726 0.094769 0.040772
v -0.178579 0.035549 -0.035506
v -0.194443 0.038704 0.002633
v -0.242815 0.048326 0.040772
v -0.182077 0.000027 -0.035506
v -0.198252 0.000027 0.002633
v -0.247572 0.000027 0.040772
v -0.178579 -0.035494 -0.035506
v -0.194443 -0.038650 0.002633
v -0.242815 -0.048272 0.040772
v -0.168217 -0.069651 -0.035506
v -0.183161 -0.075841 0.002633
v -0.228726 -0.094714 0.040772
v -0.151392 -0.101130 -0.035506
v -0.164841 -0.110116 0.002633
v -0.205848 -0.137516 0.040772
v -0.128748 -0.128721 -0.035506
v -0.140185 -0.140158 0.002633
v -0.175060 -0.175032 0.040772
v -0.101157 -0.151364 -0.035506
v -0.110143 -0.164814 0.002633
v -0.137543 -0.205821 0.040772
v -0.069678 -0.168190 -0.035506
v -0.075868 -0.183134 0.002633
v -0.094742 -0.228699 0.040772
v -0.035521 -0.178551 -0.035506
v -0.038677 -0.194416 0.002633
v -0.048299 -0.242787 0.040772
v 0.000000 -0.182050 -0.035506
v 0.000000 -0.198225 0.002633
v 0.000000 -0.247544 0.040772
vn 0.0547 -0.5549 0.8301
vn 0.0209 -0.2121 0.9770
vn 0.0963 -0.9775 -0.1876
vn 0.0903 -0.9169 -0.3889
vn 0.0953 -0.9674 0.2346
vn 0.0919 -0.9332 0.3475
vn 0.0859 -0.8719 0.4821
vn 0.0749 -0.7602 0.6454
vn 0.2217 -0.7310 0.6454
vn 0.1619 -0.5336 0.8301
vn 0.0619 -0.2039 0.9770
vn 0.2851 -0.9400 -0.1876
vn 0.2674 -0.8816 -0.3889
vn 0.2822 -0.9302 0.2346
vn 0.2722 -0.8973 0.3475
vn 0.2543 -0.8384 0.4821
vn 0.4582 -0.8573 0.2346
vn 0.4420 -0.8270 0.3475
vn 0.4130 -0.7727 0.4821
vn 0.3601 -0.6737 0.6454
vn 0.2629 -0.4918 0.8301
vn 0.1005 -0.1879 0.9770
vn 0.4630 -0.8663 -0.1876
vn 0.4343 -0.8125 -0.3889
vn 0.3537 -0.4310 0.8301
vn 0.1352 -0.1647 0.9770
vn 0.6231 -0.7593 -0.1876
vn 0.5845 -0.7122 -0.3889
vn 0.6167 -0.7514 0.2346
vn 0.5949 -0.7248 0.3475
vn 0.5558 -0.6773 0.4821
vn 0.4846 -0.5905 0.6454
vn 0.7514 -0.6167 0.2346
vn 0.7248 -0.5949 0.3475
vn 0.6773 -0.5558 0.4821
vn 0.5905 -0.4846 0.6454
vn 0.4310 -0.3537 0.8301
vn 0.1647 -0.1352 0.9770
vn 0.7593 -0.6231 -0.1876
vn 0.7122 -0.5845 -0.3889
vn 0.4918 -0.2629 0.8301
vn 0.1879 -0.1005 0.9770
vn 0.8663 -0.4630 -0.1876
vn 0.8125 -0.4343 -0.3889
vn 0.8573 -0.4582 0.2346
vn 0.8270 -0.4420 0.3475
vn 0.7727 -0.4130 0.4821
vn 0.6737 -0.3601 0.6454
vn 0.8973 -0.2722 0.3475
vn 0.8384 -0.2543 0.4821
vn 0.7310 -0.2217 0.6454
vn 0.5336 -0.1619 0.8301
vn 0.2039 -0.0619 0.9770
vn 0.9400 -0.2851 -0.1876
vn 0.8816 -0.2674 -0.3889
vn 0.9302 -0.2822 0.2346
vn 0.2121 -0.0209 0.9770
vn 0.9775 -0.0963 -0.1876
vn 0.9169 -0.0903 -0.3889
vn 0.9674 -0.0953 0.2346
vn 0.9332 -0.0919 0.3475
vn 0.8719 -0.0859 0.4821
vn 0.7602 -0.0749 0.6454
vn 0.5549 -0.0547 0.8301
vn 0.8719 0.0859 0.4821
vn 0.7602 0.0749 0.6454
vn 0.5549 0.0547 0.8301
vn 0.2121 0.0209 0.9770
vn 0.9775 0.0963 -0.1876
vn 0.9169 0.0903 -0.3889
vn 0.9674 0.0953 0.2346
vn 0.9332 0.0919 0.3475
vn 0.9400 0.2851 -0.1876
vn 0.8816 0.2674 -0.3889
vn 0.9302 0.2822 0.2346
vn 0.8973 0.2722 0.3475
vn 0.8384 0.2543 0.4821
vn 0.7310 0.2217 0.6454
vn 0.5336 0.1619 0.8301
vn 0.2039 0.0619 0.9770
vn 0.7727 0.4130 0.4821
vn 0.6737 0.3601 0.6454
vn 0.4918 0.2629 0.8301
vn 0.1879 0.1004 0.9770
vn 0.8663 0.4630 -0.1876
vn 0.8125 0.4343 -0.3889
vn 0.8573 0.4582 0.2346
vn 0.8270 0.4420 0.3475
vn 0.7122 0.5845 -0.3889
vn 0.7514 0.6167 0.2346
vn 0.7248 0.5949 0.3475
vn 0.6773 0.5558 0.4821
vn 0.5905 0.4846 0.6454
vn 0.4310 0.3537 0.8301
vn 0.1647 0.1352 0.9770
vn 0.7593 0.6231 -0.1876
vn 0.4846 0.5905 0.6454
vn 0.3537 0.4310 0.8301
vn 0.1352 0.1647 0.9770
vn 0.6231 0.7593 -0.1876
vn 0.5845 0.7122 -0.3889
vn 0.6167 0.7514 0.2346
vn 0.5949 0.7248 0.3475
vn 0.5558 0.6773 0.4821
vn 0.4343 0.8125 -0.3889
vn 0.4582 0.8573 0.2346
vn 0.4420 0.8270 0.3475
vn 0.4130 0.7727 0.4821
vn 0.3601 0.6737 0.6454
vn 0.2629 0.4918 0.8301
vn 0.1005 0.1879 0.9770
vn 0.4630 0.8663 -0.1876
vn 0.2217 0.7310 0.6454
vn 0.1619 0.5336 0.8301
vn 0.0619 0.2039 0.9770
vn 0.2851 0.9400 -0.1876
vn 0.2674 0.8816 -0.3889
vn 0.2822 0.9302 0.2346
vn 0.2722 0.8973 0.3475
vn 0.2543 0.8384 0.4821
vn 0.0953 0.9674 0.2346
vn 0.0919 0.9332 0.3475
vn 0.0859 0.8719 0.4821
vn 0.0749 0.7602 0.6454
vn 0.0547 0.5549 0.8301
vn 0.0209 0.2121 0.9770
vn 0.0963 0.9775 -0.1876
vn 0.0903 0.9169 -0.3889
vn -0.0547 0.5549 0.8301
vn -0.0209 0.2121 0.9770
vn -0.0963 0.9775 -0.1876
vn -0.0903 0.9169 -0.3889
vn -0.0953 0.9674 0.2346
vn -0.0919 0.9332 0.3475
vn -0.0859 0.8719 0.4821
vn -0.0749 0.7602 0.6454
vn -0.2722 0.8973 0.3475
vn -0.2543 0.8384 0.4821
vn -0.2217 0.7310 0.6454
vn -0.1619 0.5336 0.8301
vn -0.0619 0.2039 0.9770
vn -0.2851 0.9400 -0.1876
vn -0.2674 0.8816 -0.3889
vn -0.2822 0.9302 0.2346
vn -0.1005 0.1879 0.9770
vn -0.4630 0.8663 -0.1876
vn -0.4343 0.8125 -0.3889
vn -0.4582 0.8573 0.2346
vn -0.4420 0.8270 0.3475
vn -0.4130 0.7727 0.4821
vn -0.3601 0.6737 0.6454
vn -0.2629 0.4918 0.8301
vn -0.5949 0.7248 0.3475
vn -0.5558 0.6772 0.4821
vn -0.4846 0.5905 0.6454
vn -0.3537 0.4310 0.8301
vn -0.1352 0.1647 0.9770
vn -0.6231 0.7593 -0.1876
vn -0.5845 0.7122 -0.3889
vn -0.6167 0.7514 0.2346
vn -0.1647 0.1352 0.9770
vn -0.7593 0.6231 -0.1876
vn -0.7122 0.5845 -0.3889
vn -0.7514 0.6167 0.2346
vn -0.7248 0.5949 0.3475
vn -0.6773 0.5558 0.4821
vn -0.5905 0.4846 0.6454
vn -0.4310 0.3537 0.8301
vn -0.7727 0.4130 0.4821
vn -0.6737 0.3601 0.6454
vn -0.4918 0.2629 0.8301
vn -0.1879 0.1005 0.9770
vn -0.8663 0.4630 -0.1876
vn -0.8125 0.4343 -0.3889
vn -0.8573 0.4582 0.2346
vn -0.8270 0.4420 0.3475
vn -0.9400 0.2851 -0.1876
vn -0.8816 0.2674 -0.3889
vn -0.9302 0.2822 0.2346
vn -0.8973 0.2722 0.3475
vn -0.8384 0.2543 0.4821
vn -0.7310 0.2217 0.6454
vn -0.5336 0.1619 0.8301
vn -0.2039 0.0619 0.9770
vn -0.8719 0.0859 0.4821
vn -0.7602 0.0749 0.6454
vn -0.5549 0.0547 0.8301
vn -0.2121 0.0209 0.9770
vn -0.9775 0.0963 -0.1876
vn -0.9169 0.0903 -0.3889
vn -0.9674 0.0953 0.2346
vn -0.9332 0.0919 0.3475
vn -0.9169 -0.0903 -0.3889
vn -0.9674 -0.0953 0.2346
vn -0.9332 -0.0919 0.3475
vn -0.8719 -0.0859 0.4821
vn -0.7602 -0.0749 0.6454
vn -0.5549 -0.0547 0.8301
vn -0.2121 -0.0209 0.9770
vn -0.9775 -0.0963 -0.1876
vn -0.7310 -0.2217 0.6454
vn -0.5336 -0.1619 0.8301
vn -0.2039 -0.0619 0.9770
vn -0.9400 -0.2851 -0.1876
vn -0.8816 -0.2674 -0.3889
vn -0.9302 -0.2822 0.2346
vn -0.8973 -0.2722 0.3475
vn -0.8384 -0.2543 0.4821
vn -0.8573 -0.4582 0.2346
vn -0.8270 -0.4420 0.3475
vn -0.7727 -0.4130 0.4821
vn -0.6737 -0.3601 0.6454
vn -0.4918 -0.2629 0.8301
vn -0.1879 -0.1004 0.9770
vn -0.8663 -0.4630 -0.1876
vn -0.8125 -0.4343 -0.3889
vn -0.4310 -0.3537 0.8301
vn -0.1647 -0.1352 0.9770
vn -0.7593 -0.6231 -0.1876
vn -0.7122 -0.5845 -0.3889
vn -0.7514 -0.6167 0.2346
vn -0.7248 -0.5949 0.3475
vn -0.6772 -0.5558 0.4821
vn -0.5905 -0.4846 0.6454
vn -0.6167 -0.7514 0.2346
vn -0.5949 -0.7248 0.3475
vn -0.5558 -0.6773 0.4821
vn -0.4846 -0.5905 0.6454
vn -0.3537 -0.4310 0.8301
vn -0.1352 -0.1647 0.9770
vn -0.6231 -0.7593 -0.1876
vn -0.5845 -0.7122 -0.3889
vn -0.2629 -0.4918 0.8301
vn -0.1005 -0.1879 0.9770
vn -0.4630 -0.8663 -0.1876
vn -0.4343 -0.8125 -0.3889
vn -0.4582 -0.8573 0.2346
vn -0.4420 -0.8270 0.3475
vn -0.4130 -0.7727 0.4821
vn -0.3601 -0.6737 0.6454
vn -0.2722 -0.8973 0.3475
vn -0.2543 -0.8384 0.4821
vn -0.2217 -0.7310 0.6454
vn -0.1619 -0.5336 0.8301
vn -0.0619 -0.2039 0.9770
vn -0.2851 -0.9400 -0.1876
vn -0.2674 -0.8816 -0.3889
vn -0.2822 -0.9302 0.2346
vn -0.0209 -0.2121 0.9770
vn -0.0963 -0.9775 -0.1876
vn -0.0903 -0.9169 -0.3889
vn -0.0953 -0.9674 0.2346
vn -0.0919 -0.9332 0.3475
vn -0.0859 -0.8719 0.4821
vn -0.0749 -0.7602 0.6454
vn -0.0547 -0.5549 0.8301
vn -0.0882 -0.8950 0.4372
vn -0.0601 -0.6106 -0.7896
vn -0.2611 -0.8606 0.4372
vn -0.1781 -0.5872 -0.7896
vn -0.4240 -0.7932 0.4372
vn -0.2892 -0.5411 -0.7896
vn -0.5705 -0.6952 0.4372
vn -0.3893 -0.4743 -0.7896
vn -0.6952 -0.5705 0.4372
vn -0.4743 -0.3893 -0.7896
vn -0.7932 -0.4240 0.4372
vn -0.5411 -0.2892 -0.7896
vn -0.8606 -0.2611 0.4372
vn -0.5872 -0.1781 -0.7896
vn -0.8950 -0.0882 0.4372
vn -0.6106 -0.0601 -0.7896
vn -0.8950 0.0882 0.4372
vn -0.6106 0.0601 -0.7896
vn -0.8606 0.2611 0.4372
vn -0.5872 0.1781 -0.7896
vn -0.7932 0.4240 0.4372
vn -0.5411 0.2892 -0.7896
vn -0.6952 0.5705 0.4372
vn -0.4743 0.3893 -0.7896
vn -0.5705 0.6952 0.4372
vn -0.3893 0.4743 -0.7896
vn -0.4240 0.7932 0.4372
vn -0.2892 0.5411 -0.7896
vn -0.2611 0.8606 0.4372
vn -0.1781 0.5872 -0.7896
vn -0.0882 0.8950 0.4372
vn -0.0601 0.6106 -0.7896
vn 0.0882 0.8950 0.4372
vn 0.0601 0.6106 -0.7896
vn 0.2611 0.8606 0.4372
vn 0.1781 0.5872 -0.7896
vn 0.4240 0.7932 0.4372
vn 0.2892 0.5411 -0.7896
vn 0.5705 0.6952 0.4372
vn 0.3893 0.4743 -0.7896
vn 0.6952 0.5705 0.4372
vn 0.4743 0.3893 -0.7896
vn 0.7932 0.4240 0.4372
vn 0.5411 0.2892 -0.7896
vn 0.8606 0.2611 0.4372
vn 0.5872 0.1781 -0.7896
vn 0.8950 0.0882 0.4372
vn 0.6106 0.0601 -0.7896
vn 0.8950 -0.0882 0.4372
vn 0.6106 -0.0601 -0.7896
vn 0.8606 -0.2611 0.4372
vn 0.5872 -0.1781 -0.7896
vn 0.7932 -0.4240 0.4372
vn 0.5411 -0.2892 -0.7896
vn 0.6952 -0.5705 0.4372
vn 0.4743 -0.3893 -0.7896
vn 0.5705 -0.6952 0.4372
vn 0.3893 -0.4743 -0.7896
vn 0.4240 -0.7932 0.4372
vn 0.2892 -0.5411 -0.7896
vn 0.2611 -0.8606 0.4372
vn 0.1781 -0.5872 -0.7896
vn 0.0882 -0.8950 0.4372
vn 0.0601 -0.6106 -0.7896
vt 0.750000 0.062500
vt 0.750000 0.125000
vt 0.718750 0.125000
vt 0.718750 0.062500
vt 0.734375 0.000000
vt 0.750000 0.437500
vt 0.750000 0.500000
vt 0.718750 0.500000
vt 0.718750 0.437500
vt 0.750000 0.421129
vt 0.718750 0.421129
vt 0.750000 0.312500
vt 0.750000 0.375000
vt 0.718750 0.375000
vt 0.718750 0.312500
vt 0.750000 0.250000
vt 0.718750 0.250000
vt 0.750000 0.187500
vt 0.718750 0.187500
vt 0.687500 0.187500
vt 0.687500 0.125000
vt 0.687500 0.062500
vt 0.703125 0.000000
vt 0.687500 0.500000
vt 0.687500 0.437500
vt 0.687500 0.421129
vt 0.687500 0.375000
vt 0.687500 0.312500
vt 0.687500 0.250000
vt 0.656250 0.375000
vt 0.656250 0.312500
vt 0.656250 0.250000
vt 0.656250 0.187500
vt 0.656250 0.125000
vt 0.656250 0.062500
vt 0.671875 0.000000
vt 0.656250 0.500000
vt 0.656250 0.437500
vt 0.656250 0.421129
vt 0.625000 0.125000
vt 0.625000 0.062500
vt 0.640625 0.000000
vt 0.625000 0.500000
vt 0.625000 0.437500
vt 0.625000 0.421129
vt 0.625000 0.375000
vt 0.625000 0.312500
vt 0.625000 0.250000
vt 0.625000 0.187500
vt 0.593750 0.375000
vt 0.593750 0.312500
vt 0.593750 0.250000
vt 0.593750 0.187500
vt 0.593750 0.125000
vt 0.593750 0.062500
vt 0.609375 0.000000
vt 0.593750 0.500000
vt 0.593750 0.437500
vt 0.593750 0.421129
vt 0.562500 0.125000
vt 0.562500 0.062500
vt 0.578125 0.000000
vt 0.562500 0.500000
vt 0.562500 0.437500
vt 0.562500 0.421129
vt 0.562500 0.375000
vt 0.562500 0.312500
vt 0.562500 0.250000
vt 0.562500 0.187500
vt 0.531250 0.312500
vt 0.531250 0.250000
vt 0.531250 0.187500
vt 0.531250 0.125000
vt 0.531250 0.062500
vt 0.546875 0.000000
vt 0.531250 0.500000
vt 0.531250 0.437500
vt 0.531250 0.421129
vt 0.531250 0.375000
vt 0.515625 0.000000
vt 0.500000 0.062500
vt 0.500000 0.500000
vt 0.500000 0.437500
vt 0.500000 0.421129
vt 0.500000 0.375000
vt 0.500000 0.312500
vt 0.500000 0.250000
vt 0.500000 0.187500
vt 0.500000 0.125000
vt 0.468750 0.250000
vt 0.468750 0.187500
vt 0.468750 0.125000
vt 0.468750 0.062500
vt 0.484375 0.000000
vt 0.468750 0.500000
vt 0.468750 0.437500
vt 0.468750 0.421129
vt 0.468750 0.375000
vt 0.468750 0.312500
vt 0.437500 0.500000
vt 0.437500 0.437500
vt 0.437500 0.421129
vt 0.437500 0.375000
vt 0.437500 0.312500
vt 0.437500 0.250000
vt 0.437500 0.187500
vt 0.437500 0.125000
vt 0.437500 0.062500
vt 0.453125 0.000000
vt 0.406250 0.250000
vt 0.406250 0.187500
vt 0.406250 0.125000
vt 0.406250 0.062500
vt 0.421875 0.000000
vt 0.406250 0.500000
vt 0.406250 0.437500
vt 0.406250 0.421129
vt 0.406250 0.375000
vt 0.406250 0.312500
vt 0.375000 0.437500
vt 0.375000 0.421129
vt 0.375000 0.375000
vt 0.375000 0.312500
vt 0.375000 0.250000
vt 0.375000 0.187500
vt 0.375000 0.125000
vt 0.375000 0.062500
vt 0.390625 0.000000
vt 0.375000 0.500000
vt 0.343750 0.187500
vt 0.343750 0.125000
vt 0.343750 0.062500
vt 0.359375 0.000000
vt 0.343750 0.500000
vt 0.343750 0.437500
vt 0.343750 0.421129
vt 0.343750 0.375000
vt 0.343750 0.312500
vt 0.343750 0.250000
vt 0.312500 0.437500
vt 0.312500 0.421129
vt 0.312500 0.375000
vt 0.312500 0.312500
vt 0.312500 0.250000
vt 0.312500 0.187500
vt 0.312500 0.125000
vt 0.312500 0.062500
vt 0.328125 0.000000
vt 0.312500 0.500000
vt 0.281250 0.187500
vt 0.281250 0.125000
vt 0.281250 0.062500
vt 0.296875 0.000000
vt 0.281250 0.500000
vt 0.281250 0.437500
vt 0.281250 0.421129
vt 0.281250 0.375000
vt 0.281250 0.312500
vt 0.281250 0.250000
vt 0.250000 0.375000
vt 0.250000 0.312500
vt 0.250000 0.250000
vt 0.250000 0.187500
vt 0.250000 0.125000
vt 0.250000 0.062500
vt 0.265625 0.000000
vt 0.250000 0.500000
vt 0.250000 0.437500
vt 0.250000 0.421129
vt 0.218750 0.125000
vt 0.218750 0.062500
vt 0.234375 0.000000
vt 0.218750 0.500000
vt 0.218750 0.437500
vt 0.218750 0.421129
vt 0.218750 0.375000
vt 0.218750 0.312500
vt 0.218750 0.250000
vt 0.218750 0.187500
vt 0.187500 0.312500
vt 0.187500 0.250000
vt 0.187500 0.187500
vt 0.187500 0.125000
vt 0.187500 0.062500
vt 0.203125 0.000000
vt 0.187500 0.500000
vt 0.187500 0.437500
vt 0.187500 0.421129
vt 0.187500 0.375000
vt 0.171875 0.000000
vt 0.156250 0.062500
vt 0.156250 0.500000
vt 0.156250 0.437500
vt 0.156250 0.421129
vt 0.156250 0.375000
vt 0.156250 0.312500
vt 0.156250 0.250000
vt 0.156250 0.187500
vt 0.156250 0.125000
vt 0.125000 0.312500
vt 0.125000 0.250000
vt 0.125000 0.187500
vt 0.125000 0.125000
vt 0.125000 0.062500
vt 0.140625 0.000000
vt 0.125000 0.500000
vt 0.125000 0.437500
vt 0.125000 0.421129
vt 0.125000 0.375000
vt 0.109375 0.000000
vt 0.093750 0.062500
vt 0.093750 0.500000
vt 0.093750 0.437500
vt 0.093750 0.421129
vt 0.093750 0.375000
vt 0.093750 0.312500
vt 0.093750 0.250000
vt 0.093750 0.187500
vt 0.093750 0.125000
vt 0.062500 0.250000
vt 0.062500 0.187500
vt 0.062500 0.125000
vt 0.062500 0.062500
vt 0.078125 0.000000
vt 0.062500 0.500000
vt 0.062500 0.437500
vt 0.062500 0.421129
vt 0.062500 0.375000
vt 0.062500 0.312500
vt 0.031250 0.500000
vt 0.031250 0.437500
vt 0.031250 0.421129
vt 0.031250 0.375000
vt 0.031250 0.312500
vt 0.031250 0.250000
vt 0.031250 0.187500
vt 0.031250 0.125000
vt 0.031250 0.062500
vt 0.046875 0.000000
vt 0.000000 0.250000
vt 0.000000 0.187500
vt 0.000000 0.125000
vt 0.000000 0.062500
vt 0.015625 0.000000
vt 0.000000 0.500000
vt 0.000000 0.437500
vt 0.000000 0.421129
vt 0.000000 0.375000
vt 0.000000 0.312500
vt 1.000000 0.421129
vt 1.000000 0.437500
vt 0.968750 0.437500
vt 0.968750 0.421129
vt 1.000000 0.312500
vt 1.000000 0.375000
vt 0.968750 0.375000
vt 0.968750 0.312500
vt 1.000000 0.250000
vt 0.968750 0.250000
vt 1.000000 0.187500
vt 0.968750 0.187500
vt 1.000000 0.125000
vt 0.968750 0.125000
vt 1.000000 0.062500
vt 0.968750 0.062500
vt 0.984375 0.000000
vt 1.000000 0.500000
vt 0.968750 0.500000
vt 0.937500 0.187500
vt 0.937500 0.125000
vt 0.937500 0.062500
vt 0.953125 0.000000
vt 0.937500 0.500000
vt 0.937500 0.437500
vt 0.937500 0.421129
vt 0.937500 0.375000
vt 0.937500 0.312500
vt 0.937500 0.250000
vt 0.906250 0.375000
vt 0.906250 0.312500
vt 0.906250 0.250000
vt 0.906250 0.187500
vt 0.906250 0.125000
vt 0.906250 0.062500
vt 0.921875 0.000000
vt 0.906250 0.500000
vt 0.906250 0.437500
vt 0.906250 0.421129
vt 0.875000 0.125000
vt 0.875000 0.062500
vt 0.890625 0.000000
vt 0.875000 0.500000
vt 0.875000 0.437500
vt 0.875000 0.421129
vt 0.875000 0.375000
vt 0.875000 0.312500
vt 0.875000 0.250000
vt 0.875000 0.187500
vt 0.843750 0.375000
vt 0.843750 0.312500
vt 0.843750 0.250000
vt 0.843750 0.187500
vt 0.843750 0.125000
vt 0.843750 0.062500
vt 0.859375 0.000000
vt 0.843750 0.500000
vt 0.843750 0.437500
vt 0.843750 0.421129
vt 0.812500 0.125000
vt 0.812500 0.062500
vt 0.828125 0.000000
vt 0.812500 0.500000
vt 0.812500 0.437500
vt 0.812500 0.421129
vt 0.812500 0.375000
vt 0.812500 0.312500
vt 0.812500 0.250000
vt 0.812500 0.187500
vt 0.781250 0.312500
vt 0.781250 0.250000
vt 0.781250 0.187500
vt 0.781250 0.125000
vt 0.781250 0.062500
vt 0.796875 0.000000
vt 0.781250 0.500000
vt 0.781250 0.437500
vt 0.781250 0.421129
vt 0.781250 0.375000
vt 0.765625 0.000000
vt 0.781250 0.389879
vt 0.750000 0.389879
vt 0.781250 0.405504
vt 0.750000 0.405504
vt 0.812500 0.389879
vt 0.812500 0.405504
vt 0.843750 0.389879
vt 0.843750 0.405504
vt 0.875000 0.389879
vt 0.875000 0.405504
vt 0.906250 0.389879
vt 0.906250 0.405504
vt 0.937500 0.389879
vt 0.937500 0.405504
vt 0.968750 0.389879
vt 0.968750 0.405504
vt 1.000000 0.389879
vt 1.000000 0.405504
vt 0.031250 0.389879
vt 0.000000 0.389879
vt 0.031250 0.405504
vt 0.000000 0.405504
vt 0.062500 0.389879
vt 0.062500 0.405504
vt 0.093750 0.389879
vt 0.093750 0.405504
vt 0.125000 0.389879
vt 0.125000 0.405504
vt 0.156250 0.389879
vt 0.156250 0.405504
vt 0.187500 0.389879
vt 0.187500 0.405504
vt 0.218750 0.389879
vt 0.218750 0.405504
vt 0.250000 0.389879
vt 0.250000 0.405504
vt 0.281250 0.389879
vt 0.281250 0.405504
vt 0.312500 0.389879
vt 0.312500 0.405504
vt 0.343750 0.389879
vt 0.343750 0.405504
vt 0.375000 0.389879
vt 0.375000 0.405504
vt 0.406250 0.389879
vt 0.406250 0.405504
vt 0.437500 0.389879
vt 0.437500 0.405504
vt 0.468750 0.389879
vt 0.468750 0.405504
vt 0.500000 0.389879
vt 0.500000 0.405504
vt 0.531250 0.389879
vt 0.531250 0.405504
vt 0.562500 0.389879
vt 0.562500 0.405504
vt 0.593750 0.389879
vt 0.593750 0.405504
vt 0.625000 0.389879
vt 0.625000 0.405504
vt 0.656250 0.389879
vt 0.656250 0.405504
vt 0.687500 0.389879
vt 0.687500 0.405504
vt 0.718750 0.389879
vt 0.718750 0.405504
s 0
usemtl 
f 257/1/1 256/2/1 11/3/1 12/4/1
f 4/5/2 257/1/2 12/4/2
f 2/6/3 1/7/3 5/8/3 6/9/3
f 351/10/4 2/6/4 6/9/4 258/11/4
f 3/12/5 253/13/5 7/14/5 8/15/5
f 254/16/6 3/12/6 8/15/6 9/17/6
f 255/18/7 254/16/7 9/17/7 10/19/7
f 256/2/8 255/18/8 10/19/8 11/3/8
f 11/3/9 10/19/9 18/20/9 19/21/9
f 12/4/10 11/3/10 19/21/10 20/22/10
f 4/23/11 12/4/11 20/22/11
f 6/9/12 5/8/12 13/24/12 14/25/12
f 258/11/13 6/9/13 14/25/13 261/26/13
f 8/15/14 7/14/14 15/27/14 16/28/14
f 9/17/15 8/15/15 16/28/15 17/29/15
f 10/19/16 9/17/16 17/29/16 18/20/16
f 16/28/17 15/27/17 23/30/17 24/31/17
f 17/29/18 16/28/18 24/31/18 25/32/18
f 18/20/19 17/29/19 25/32/19 26/33/19
f 19/21/20 18/20/20 26/33/20 27/34/20
f 20/22/21 19/21/21 27/34/21 28/35/21
f 4/36/22 20/22/22 28/35/22
f 14/25/23 13/24/23 21/37/23 22/38/23
f 261/26/24 14/25/24 22/38/24 264/39/24
f 28/35/25 27/34/25 35/40/25 36/41/25
f 4/42/26 28/35/26 36/41/26
f 22/38/27 21/37/27 29/43/27 30/44/27
f 264/39/28 22/38/28 30/44/28 267/45/28
f 24/31/29 23/30/29 31/46/29 32/47/29
f 25/32/30 24/31/30 32/47/30 33/48/30
f 26/33/31 25/32/31 33/48/31 34/49/31
f 27/34/32 26/33/32 34/49/32 35/40/32
f 32/47/33 31/46/33 39/50/33 40/51/33
f 33/48/34 32/47/34 40/51/34 41/52/34
f 34/49/35 33/48/35 41/52/35 42/53/35
f 35/40/36 34/49/36 42/53/36 43/54/36
f 36/41/37 35/40/37 43/54/37 44/55/37
f 4/56/38 36/41/38 44/55/38
f 30/44/39 29/43/39 37/57/39 38/58/39
f 267/45/40 30/44/40 38/58/40 270/59/40
f 44/55/41 43/54/41 51/60/41 52/61/41
f 4/62/42 44/55/42 52/61/42
f 38/58/43 37/57/43 45/63/43 46/64/43
f 270/59/44 38/58/44 46/64/44 273/65/44
f 40/51/45 39/50/45 47/66/45 48/67/45
f 41/52/46 40/51/46 48/67/46 49/68/46
f 42/53/47 41/52/47 49/68/47 50/69/47
f 43/54/48 42/53/48 50/69/48 51/60/48
f 49/68/49 48/67/49 56/70/49 57/71/49
f 50/69/50 49/68/50 57/71/50 58/72/50
f 51/60/51 50/69/51 58/72/51 59/73/51
f 52/61/52 51/60/52 59/73/52 60/74/52
f 4/75/53 52/61/53 60/74/53
f 46/64/54 45/63/54 53/76/54 54/77/54
f 273/65/55 46/64/55 54/77/55 276/78/55
f 48/67/56 47/66/56 55/79/56 56/70/56
f 4/80/57 60/74/57 68/81/57
f 54/77/58 53/76/58 61/82/58 62/83/58
f 276/78/59 54/77/59 62/83/59 279/84/59
f 56/70/60 55/79/60 63/85/60 64/86/60
f 57/71/61 56/70/61 64/86/61 65/87/61
f 58/72/62 57/71/62 65/87/62 66/88/62
f 59/73/63 58/72/63 66/88/63 67/89/63
f 60/74/64 59/73/64 67/89/64 68/81/64
f 66/88/65 65/87/65 73/90/65 74/91/65
f 67/89/66 66/88/66 74/91/66 75/92/66
f 68/81/67 67/89/67 75/92/67 76/93/67
f 4/94/68 68/81/68 76/93/68
f 62/83/69 61/82/69 69/95/69 70/96/69
f 279/84/70 62/83/70 70/96/70 282/97/70
f 64/86/71 63/85/71 71/98/71 72/99/71
f 65/87/72 64/86/72 72/99/72 73/90/72
f 70/96/73 69/95/73 77/100/73 78/101/73
f 282/97/74 70/96/74 78/101/74 285/102/74
f 72/99/75 71/98/75 79/103/75 80/104/75
f 73/90/76 72/99/76 80/104/76 81/105/76
f 74/91/77 73/90/77 81/105/77 82/106/77
f 75/92/78 74/91/78 82/106/78 83/107/78
f 76/93/79 75/92/79 83/107/79 84/108/79
f 4/109/80 76/93/80 84/108/80
f 82/106/81 81/105/81 89/110/81 90/111/81
f 83/107/82 82/106/82 90/111/82 91/112/82
f 84/108/83 83/107/83 91/112/83 92/113/83
f 4/114/84 84/108/84 92/113/84
f 78/101/85 77/100/85 85/115/85 86/116/85
f 285/102/86 78/101/86 86/116/86 288/117/86
f 80/104/87 79/103/87 87/118/87 88/119/87
f 81/105/88 80/104/88 88/119/88 89/110/88
f 288/117/89 86/116/89 94/120/89 291/121/89
f 88/119/90 87/118/90 95/122/90 96/123/90
f 89/110/91 88/119/91 96/123/91 97/124/91
f 90/111/92 89/110/92 97/124/92 98/125/92
f 91/112/93 90/111/93 98/125/93 99/126/93
f 92/113/94 91/112/94 99/126/94 100/127/94
f 4/128/95 92/113/95 100/127/95
f 86/116/96 85/115/96 93/129/96 94/120/96
f 99/126/97 98/125/97 106/130/97 107/131/97
f 100/127/98 99/126/98 107/131/98 108/132/98
f 4/133/99 100/127/99 108/132/99
f 94/120/100 93/129/100 101/134/100 102/135/100
f 291/121/101 94/120/101 102/135/101 294/136/101
f 96/123/102 95/122/102 103/137/102 104/138/102
f 97/124/103 96/123/103 104/138/103 105/139/103
f 98/125/104 97/124/104 105/139/104 106/130/104
f 294/136/105 102/135/105 110/140/105 297/141/105
f 104/138/106 103/137/106 111/142/106 112/143/106
f 105/139/107 104/138/107 112/143/107 113/144/107
f 106/130/108 105/139/108 113/144/108 114/145/108
f 107/131/109 106/130/109 114/145/109 115/146/109
f 108/132/110 107/131/110 115/146/110 116/147/110
f 4/148/111 108/132/111 116/147/111
f 102/135/112 101/134/112 109/149/112 110/140/112
f 115/146/113 114/145/113 122/150/113 123/151/113
f 116/147/114 115/146/114 123/151/114 124/152/114
f 4/153/115 116/147/115 124/152/115
f 110/140/116 109/149/116 117/154/116 118/155/116
f 297/141/117 110/140/117 118/155/117 300/156/117
f 112/143/118 111/142/118 119/157/118 120/158/118
f 113/144/119 112/143/119 120/158/119 121/159/119
f 114/145/120 113/144/120 121/159/120 122/150/120
f 120/158/121 119/157/121 127/160/121 128/161/121
f 121/159/122 120/158/122 128/161/122 129/162/122
f 122/150/123 121/159/123 129/162/123 130/163/123
f 123/151/124 122/150/124 130/163/124 131/164/124
f 124/152/125 123/151/125 131/164/125 132/165/125
f 4/166/126 124/152/126 132/165/126
f 118/155/127 117/154/127 125/167/127 126/168/127
f 300/156/128 118/155/128 126/168/128 303/169/128
f 132/165/129 131/164/129 139/170/129 140/171/129
f 4/172/130 132/165/130 140/171/130
f 126/168/131 125/167/131 133/173/131 134/174/131
f 303/169/132 126/168/132 134/174/132 306/175/132
f 128/161/133 127/160/133 135/176/133 136/177/133
f 129/162/134 128/161/134 136/177/134 137/178/134
f 130/163/135 129/162/135 137/178/135 138/179/135
f 131/164/136 130/163/136 138/179/136 139/170/136
f 137/178/137 136/177/137 144/180/137 145/181/137
f 138/179/138 137/178/138 145/181/138 146/182/138
f 139/170/139 138/179/139 146/182/139 147/183/139
f 140/171/140 139/170/140 147/183/140 148/184/140
f 4/185/141 140/171/141 148/184/141
f 134/174/142 133/173/142 141/186/142 142/187/142
f 306/175/143 134/174/143 142/187/143 309/188/143
f 136/177/144 135/176/144 143/189/144 144/180/144
f 4/190/145 148/184/145 156/191/145
f 142/187/146 141/186/146 149/192/146 150/193/146
f 309/188/147 142/187/147 150/193/147 312/194/147
f 144/180/148 143/189/148 151/195/148 152/196/148
f 145/181/149 144/180/149 152/196/149 153/197/149
f 146/182/150 145/181/150 153/197/150 154/198/150
f 147/183/151 146/182/151 154/198/151 155/199/151
f 148/184/152 147/183/152 155/199/152 156/191/152
f 153/197/153 152/196/153 160/200/153 161/201/153
f 154/198/154 153/197/154 161/201/154 162/202/154
f 155/199/155 154/198/155 162/202/155 163/203/155
f 156/191/156 155/199/156 163/203/156 164/204/156
f 4/205/157 156/191/157 164/204/157
f 150/193/158 149/192/158 157/206/158 158/207/158
f 312/194/159 150/193/159 158/207/159 315/208/159
f 152/196/160 151/195/160 159/209/160 160/200/160
f 4/210/161 164/204/161 172/211/161
f 158/207/162 157/206/162 165/212/162 166/213/162
f 315/208/163 158/207/163 166/213/163 318/214/163
f 160/200/164 159/209/164 167/215/164 168/216/164
f 161/201/165 160/200/165 168/216/165 169/217/165
f 162/202/166 161/201/166 169/217/166 170/218/166
f 163/203/167 162/202/167 170/218/167 171/219/167
f 164/204/168 163/203/168 171/219/168 172/211/168
f 170/218/169 169/217/169 177/220/169 178/221/169
f 171/219/170 170/218/170 178/221/170 179/222/170
f 172/211/171 171/219/171 179/222/171 180/223/171
f 4/224/172 172/211/172 180/223/172
f 166/213/173 165/212/173 173/225/173 174/226/173
f 318/214/174 166/213/174 174/226/174 321/227/174
f 168/216/175 167/215/175 175/228/175 176/229/175
f 169/217/176 168/216/176 176/229/176 177/220/176
f 174/226/177 173/225/177 181/230/177 182/231/177
f 321/227/178 174/226/178 182/231/178 324/232/178
f 176/229/179 175/228/179 183/233/179 184/234/179
f 177/220/180 176/229/180 184/234/180 185/235/180
f 178/221/181 177/220/181 185/235/181 186/236/181
f 179/222/182 178/221/182 186/236/182 187/237/182
f 180/223/183 179/222/183 187/237/183 188/238/183
f 4/239/184 180/223/184 188/238/184
f 186/236/185 185/235/185 193/240/185 194/241/185
f 187/237/186 186/236/186 194/241/186 195/242/186
f 188/238/187 187/237/187 195/242/187 196/243/187
f 4/244/188 188/238/188 196/243/188
f 182/231/189 181/230/189 189/245/189 190/246/189
f 324/232/190 182/231/190 190/246/190 327/247/190
f 184/234/191 183/233/191 191/248/191 192/249/191
f 185/235/192 184/234/192 192/249/192 193/240/192
f 327/250/193 190/251/193 198/252/193 330/253/193
f 192/254/194 191/255/194 199/256/194 200/257/194
f 193/258/195 192/254/195 200/257/195 201/259/195
f 194/260/196 193/258/196 201/259/196 202/261/196
f 195/262/197 194/260/197 202/261/197 203/263/197
f 196/264/198 195/262/198 203/263/198 204/265/198
f 4/266/199 196/264/199 204/265/199
f 190/251/200 189/267/200 197/268/200 198/252/200
f 203/263/201 202/261/201 210/269/201 211/270/201
f 204/265/202 203/263/202 211/270/202 212/271/202
f 4/272/203 204/265/203 212/271/203
f 198/252/204 197/268/204 205/273/204 206/274/204
f 330/253/205 198/252/205 206/274/205 333/275/205
f 200/257/206 199/256/206 207/276/206 208/277/206
f 201/259/207 200/257/207 208/277/207 209/278/207
f 202/261/208 201/259/208 209/278/208 210/269/208
f 208/277/209 207/276/209 215/279/209 216/280/209
f 209/278/210 208/277/210 216/280/210 217/281/210
f 210/269/211 209/278/211 217/281/211 218/282/211
f 211/270/212 210/269/212 218/282/212 219/283/212
f 212/271/213 211/270/213 219/283/213 220/284/213
f 4/285/214 212/271/214 220/284/214
f 206/274/215 205/273/215 213/286/215 214/287/215
f 333/275/216 206/274/216 214/287/216 336/288/216
f 220/284/217 219/283/217 227/289/217 228/290/217
f 4/291/218 220/284/218 228/290/218
f 214/287/219 213/286/219 221/292/219 222/293/219
f 336/288/220 214/287/220 222/293/220 339/294/220
f 216/280/221 215/279/221 223/295/221 224/296/221
f 217/281/222 216/280/222 224/296/222 225/297/222
f 218/282/223 217/281/223 225/297/223 226/298/223
f 219/283/224 218/282/224 226/298/224 227/289/224
f 224/296/225 223/295/225 231/299/225 232/300/225
f 225/297/226 224/296/226 232/300/226 233/301/226
f 226/298/227 225/297/227 233/301/227 234/302/227
f 227/289/228 226/298/228 234/302/228 235/303/228
f 228/290/229 227/289/229 235/303/229 236/304/229
f 4/305/230 228/290/230 236/304/230
f 222/293/231 221/292/231 229/306/231 230/307/231
f 339/294/232 222/293/232 230/307/232 342/308/232
f 236/304/233 235/303/233 243/309/233 244/310/233
f 4/311/234 236/304/234 244/310/234
f 230/307/235 229/306/235 237/312/235 238/313/235
f 342/308/236 230/307/236 238/313/236 345/314/236
f 232/300/237 231/299/237 239/315/237 240/316/237
f 233/301/238 232/300/238 240/316/238 241/317/238
f 234/302/239 233/301/239 241/317/239 242/318/239
f 235/303/240 234/302/240 242/318/240 243/309/240
f 241/317/241 240/316/241 248/319/241 249/320/241
f 242/318/242 241/317/242 249/320/242 250/321/242
f 243/309/243 242/318/243 250/321/243 251/322/243
f 244/310/244 243/309/244 251/322/244 252/323/244
f 4/324/245 244/310/245 252/323/245
f 238/313/246 237/312/246 245/325/246 246/326/246
f 345/314/247 238/313/247 246/326/247 348/327/247
f 240/316/248 239/315/248 247/328/248 248/319/248
f 4/329/249 252/323/249 257/1/249
f 246/326/250 245/325/250 1/7/250 2/6/250
f 348/327/251 246/326/251 2/6/251 351/10/251
f 248/319/252 247/328/252 253/13/252 3/12/252
f 249/320/253 248/319/253 3/12/253 254/16/253
f 250/321/254 249/320/254 254/16/254 255/18/254
f 251/322/255 250/321/255 255/18/255 256/2/255
f 252/323/256 251/322/256 256/2/256 257/1/256
f 247/328/257 350/330/257 353/331/257 253/13/257
f 350/330/258 349/332/258 352/333/258 353/331/258
f 349/332/251 348/327/251 351/10/251 352/333/251
f 239/315/259 347/334/259 350/330/259 247/328/259
f 347/334/260 346/335/260 349/332/260 350/330/260
f 346/335/247 345/314/247 348/327/247 349/332/247
f 231/299/261 344/336/261 347/334/261 239/315/261
f 344/336/262 343/337/262 346/335/262 347/334/262
f 343/337/236 342/308/236 345/314/236 346/335/236
f 223/295/263 341/338/263 344/336/263 231/299/263
f 341/338/264 340/339/264 343/337/264 344/336/264
f 340/339/232 339/294/232 342/308/232 343/337/232
f 215/279/265 338/340/265 341/338/265 223/295/265
f 338/340/266 337/341/266 340/339/266 341/338/266
f 337/341/220 336/288/220 339/294/220 340/339/220
f 207/276/267 335/342/267 338/340/267 215/279/267
f 335/342/268 334/343/268 337/341/268 338/340/268
f 334/343/216 333/275/216 336/288/216 337/341/216
f 199/256/269 332/344/269 335/342/269 207/276/269
f 332/344/270 331/345/270 334/343/270 335/342/270
f 331/345/205 330/253/205 333/275/205 334/343/205
f 191/255/271 329/346/271 332/344/271 199/256/271
f 329/346/272 328/347/272 331/345/272 332/344/272
f 328/347/193 327/250/193 330/253/193 331/345/193
f 183/233/273 326/348/273 329/349/273 191/248/273
f 326/348/274 325/350/274 328/351/274 329/349/274
f 325/350/190 324/232/190 327/247/190 328/351/190
f 175/228/275 323/352/275 326/348/275 183/233/275
f 323/352/276 322/353/276 325/350/276 326/348/276
f 322/353/178 321/227/178 324/232/178 325/350/178
f 167/215/277 320/354/277 323/352/277 175/228/277
f 320/354/278 319/355/278 322/353/278 323/352/278
f 319/355/174 318/214/174 321/227/174 322/353/174
f 159/209/279 317/356/279 320/354/279 167/215/279
f 317/356/280 316/357/280 319/355/280 320/354/280
f 316/357/163 315/208/163 318/214/163 319/355/163
f 151/195/281 314/358/281 317/356/281 159/209/281
f 314/358/282 313/359/282 316/357/282 317/356/282
f 313/359/159 312/194/159 315/208/159 316/357/159
f 143/189/283 311/360/283 314/358/283 151/195/283
f 311/360/284 310/361/284 313/359/284 314/358/284
f 310/361/147 309/188/147 312/194/147 313/359/147
f 135/176/285 308/362/285 311/360/285 143/189/285
f 308/362/286 307/363/286 310/361/286 311/360/286
f 307/363/143 306/175/143 309/188/143 310/361/143
f 127/160/287 305/364/287 308/362/287 135/176/287
f 305/364/288 304/365/288 307/363/288 308/362/288
f 304/365/132 303/169/132 306/175/132 307/363/132
f 119/157/289 302/366/289 305/364/289 127/160/289
f 302/366/290 301/367/290 304/365/290 305/364/290
f 301/367/128 300/156/128 303/169/128 304/365/128
f 111/142/291 299/368/291 302/366/291 119/157/291
f 299/368/292 298/369/292 301/367/292 302/366/292
f 298/369/117 297/141/117 300/156/117 301/367/117
f 103/137/293 296/370/293 299/368/293 111/142/293
f 296/370/294 295/371/294 298/369/294 299/368/294
f 295/371/105 294/136/105 297/141/105 298/369/105
f 95/122/295 293/372/295 296/370/295 103/137/295
f 293/372/296 292/373/296 295/371/296 296/370/296
f 292/373/101 291/121/101 294/136/101 295/371/101
f 87/118/297 290/374/297 293/372/297 95/122/297
f 290/374/298 289/375/298 292/373/298 293/372/298
f 289/375/89 288/117/89 291/121/89 292/373/89
f 79/103/299 287/376/299 290/374/299 87/118/299
f 287/376/300 286/377/300 289/375/300 290/374/300
f 286/377/86 285/102/86 288/117/86 289/375/86
f 71/98/301 284/378/301 287/376/301 79/103/301
f 284/378/302 283/379/302 286/377/302 287/376/302
f 283/379/74 282/97/74 285/102/74 286/377/74
f 63/85/303 281/380/303 284/378/303 71/98/303
f 281/380/304 280/381/304 283/379/304 284/378/304
f 280/381/70 279/84/70 282/97/70 283/379/70
f 55/79/305 278/382/305 281/380/305 63/85/305
f 278/382/306 277/383/306 280/381/306 281/380/306
f 277/383/59 276/78/59 279/84/59 280/381/59
f 47/66/307 275/384/307 278/382/307 55/79/307
f 275/384/308 274/385/308 277/383/308 278/382/308
f 274/385/55 273/65/55 276/78/55 277/383/55
f 39/50/309 272/386/309 275/384/309 47/66/309
f 272/386/310 271/387/310 274/385/310 275/384/310
f 271/387/44 270/59/44 273/65/44 274/385/44
f 31/46/311 269/388/311 272/386/311 39/50/311
f 269/388/312 268/389/312 271/387/312 272/386/312
f 268/389/40 267/45/40 270/59/40 271/387/40
f 23/30/313 266/390/313 269/388/313 31/46/313
f 266/390/314 265/391/314 268/389/314 269/388/314
f 265/391/28 264/39/28 267/45/28 268/389/28
f 15/27/315 263/392/315 266/390/315 23/30/315
f 263/392/316 262/393/316 265/391/316 266/390/316
f 262/393/24 261/26/24 264/39/24 265/391/24
f 7/14/317 260/394/317 263/392/317 15/27/317
f 260/394/318 259/395/318 262/393/318 263/392/318
f 259/395/13 258/11/13 261/26/13 262/393/13
f 253/13/319 353/331/319 260/394/319 7/14/319
f 353/331/320 352/333/320 259/395/320 260/394/320
f 352/333/4 351/10/4 258/11/4 259/395/4
