# Blender 5.2.1 LTS
# www.blender.org
mtllib FireAura.mtl
o Sphere
v 0.000000 0.159073 0.348877
v 0.000000 0.161517 0.277402
v 0.000000 0.163144 0.176180
v 0.000000 0.152769 -0.053613
v 0.000000 -0.000000 -0.300543
v 0.031034 0.156017 0.348877
v 0.031510 0.158413 0.277402
v 0.031828 0.160009 0.176180
v 0.031590 0.158813 0.060892
v 0.029804 0.149833 -0.053613
v 0.026639 0.133925 -0.154430
v 0.021559 0.108385 -0.231483
v 0.014932 0.075066 -0.278121
v 0.007612 0.038268 -0.295413
v 0.060875 0.146965 0.348877
v 0.061810 0.149222 0.277402
v 0.062433 0.150725 0.176180
v 0.061966 0.149599 0.060892
v 0.058462 0.141140 -0.053613
v 0.052255 0.126155 -0.154430
v 0.042290 0.102096 -0.231483
v 0.029289 0.070711 -0.278121
v 0.014932 0.036048 -0.295413
v 0.088376 0.132265 0.348877
v 0.089734 0.134296 0.277402
v 0.090638 0.135649 0.176180
v 0.089961 0.134636 0.060892
v 0.084874 0.127022 -0.053613
v 0.075862 0.113536 -0.154430
v 0.061395 0.091884 -0.231483
v 0.042522 0.063638 -0.278121
v 0.021677 0.032442 -0.295413
v 0.112482 0.112482 0.348877
v 0.114210 0.114210 0.277402
v 0.115360 0.115360 0.176180
v 0.114498 0.114498 0.060892
v 0.108024 0.108024 -0.053613
v 0.096555 0.096555 -0.154430
v 0.078141 0.078141 -0.231483
v 0.054120 0.054120 -0.278121
v 0.027590 0.027590 -0.295413
v 0.132265 0.088376 0.348877
v 0.134296 0.089734 0.277402
v 0.135649 0.090638 0.176180
v 0.134636 0.089961 0.060892
v 0.127022 0.084874 -0.053613
v 0.113536 0.075862 -0.154430
v 0.091884 0.061395 -0.231483
v 0.063638 0.042521 -0.278121
v 0.032442 0.021677 -0.295413
v 0.146965 0.060875 0.348877
v 0.149222 0.061810 0.277402
v 0.150725 0.062432 0.176180
v 0.149599 0.061966 0.060892
v 0.141140 0.058462 -0.053613
v 0.126155 0.052255 -0.154430
v 0.102096 0.042290 -0.231483
v 0.070711 0.029289 -0.278121
v 0.036048 0.014932 -0.295413
v 0.156017 0.031034 0.348877
v 0.158413 0.031510 0.277402
v 0.160009 0.031828 0.176180
v 0.158813 0.031590 0.060892
v 0.149833 0.029804 -0.053613
v 0.133925 0.026639 -0.154430
v 0.108385 0.021559 -0.231483
v 0.075066 0.014932 -0.278121
v 0.038268 0.007612 -0.295413
v 0.159073 0.000000 0.348877
v 0.161517 0.000000 0.277402
v 0.163144 0.000000 0.176180
v 0.161925 0.000000 0.060892
v 0.152769 -0.000000 -0.053613
v 0.136549 -0.000000 -0.154430
v 0.110508 -0.000000 -0.231483
v 0.076537 -0.000000 -0.278121
v 0.039018 -0.000000 -0.295413
v 0.156017 -0.031034 0.348877
v 0.158413 -0.031510 0.277402
v 0.160009 -0.031828 0.176180
v 0.158813 -0.031590 0.060892
v 0.149833 -0.029804 -0.053613
v 0.133925 -0.026639 -0.154430
v 0.108385 -0.021559 -0.231483
v 0.075066 -0.014932 -0.278121
v 0.038268 -0.007612 -0.295413
v 0.146965 -0.060875 0.348877
v 0.149222 -0.061810 0.277402
v 0.150725 -0.062433 0.176180
v 0.149599 -0.061966 0.060892
v 0.141140 -0.058462 -0.053613
v 0.126155 -0.052255 -0.154430
v 0.102096 -0.042290 -0.231483
v 0.070711 -0.029289 -0.278121
v 0.036048 -0.014932 -0.295413
v 0.132265 -0.088376 0.348877
v 0.134296 -0.089734 0.277402
v 0.135649 -0.090638 0.176180
v 0.134636 -0.089961 0.060892
v 0.127022 -0.084874 -0.053613
v 0.113536 -0.075862 -0.154430
v 0.091884 -0.061395 -0.231483
v 0.063638 -0.042522 -0.278121
v 0.032442 -0.021677 -0.295413
v 0.112482 -0.112482 0.348877
v 0.114209 -0.114210 0.277402
v 0.115360 -0.115360 0.176180
v 0.114498 -0.114498 0.060892
v 0.108024 -0.108024 -0.053613
v 0.096555 -0.096555 -0.154430
v 0.078141 -0.078141 -0.231483
v 0.054120 -0.054120 -0.278121
v 0.027590 -0.027590 -0.295413
v 0.088376 -0.132265 0.348877
v 0.089734 -0.134296 0.277402
v 0.090638 -0.135649 0.176180
v 0.089961 -0.134636 0.060892
v 0.084874 -0.127022 -0.053613
v 0.075862 -0.113536 -0.154430
v 0.061395 -0.091884 -0.231483
v 0.042521 -0.063638 -0.278121
v 0.021677 -0.032442 -0.295413
v 0.060875 -0.146965 0.348877
v 0.061810 -0.149222 0.277402
v 0.062432 -0.150725 0.176180
v 0.061966 -0.149599 0.060892
v 0.058462 -0.141140 -0.053613
v 0.052255 -0.126155 -0.154430
v 0.042290 -0.102096 -0.231483
v 0.029289 -0.070711 -0.278121
v 0.014932 -0.036048 -0.295413
v 0.031034 -0.156017 0.348877
v 0.031510 -0.158413 0.277402
v 0.031828 -0.160009 0.176180
v 0.031590 -0.158813 0.060892
v 0.029804 -0.149833 -0.053613
v 0.026639 -0.133925 -0.154430
v 0.021559 -0.108385 -0.231483
v 0.014932 -0.075066 -0.278121
v 0.007612 -0.038268 -0.295413
v 0.000000 -0.159073 0.348877
v 0.000000 -0.161517 0.277402
v 0.000000 -0.163144 0.176180
v 0.000000 -0.161925 0.060892
v 0.000000 -0.152769 -0.053613
v 0.000000 -0.136549 -0.154430
v 0.000000 -0.110508 -0.231483
v 0.000000 -0.076537 -0.278121
v 0.000000 -0.039018 -0.295413
v -0.031034 -0.156017 0.348877
v -0.031510 -0.158413 0.277402
v -0.031828 -0.160009 0.176180
v -0.031590 -0.158813 0.060892
v -0.029804 -0.149833 -0.053613
v -0.026639 -0.133925 -0.154430
v -0.021559 -0.108385 -0.231483
v -0.014932 -0.075066 -0.278121
v -0.007612 -0.038268 -0.295413
v -0.060875 -0.146965 0.348877
v -0.061810 -0.149222 0.277402
v -0.062432 -0.150725 0.176180
v -0.061966 -0.149599 0.060892
v -0.058462 -0.141140 -0.053613
v -0.052255 -0.126155 -0.154430
v -0.042290 -0.102096 -0.231483
v -0.029289 -0.070711 -0.278121
v -0.014932 -0.036048 -0.295413
v -0.088376 -0.132265 0.348877
v -0.089734 -0.134296 0.277402
v -0.090638 -0.135649 0.176180
v -0.089961 -0.134636 0.060892
v -0.084874 -0.127022 -0.053613
v -0.075862 -0.113536 -0.154430
v -0.061395 -0.091884 -0.231483
v -0.042522 -0.063638 -0.278121
v -0.021677 -0.032442 -0.295413
v -0.112482 -0.112482 0.348877
v -0.114209 -0.114209 0.277402
v -0.115360 -0.115360 0.176180
v -0.114498 -0.114498 0.060892
v -0.108024 -0.108024 -0.053613
v -0.096555 -0.096555 -0.154430
v -0.078141 -0.078141 -0.231483
v -0.054120 -0.054120 -0.278121
v -0.027590 -0.027590 -0.295413
v -0.132265 -0.088376 0.348877
v -0.134296 -0.089734 0.277402
v -0.135649 -0.090638 0.176180
v -0.134636 -0.089961 0.060892
v -0.127022 -0.084874 -0.053613
v -0.113536 -0.075862 -0.154430
v -0.091884 -0.061395 -0.231483
v -0.063638 -0.042521 -0.278121
v -0.032442 -0.021677 -0.295413
v -0.146965 -0.060875 0.348877
v -0.149222 -0.061810 0.277402
v -0.150725 -0.062432 0.176180
v -0.149599 -0.061966 0.060892
v -0.141140 -0.058462 -0.053613
v -0.126155 -0.052255 -0.154430
v -0.102096 -0.042290 -0.231483
v -0.070711 -0.029289 -0.278121
v -0.036048 -0.014932 -0.295413
v -0.156017 -0.031034 0.348877
v -0.158413 -0.031510 0.277402
v -0.160009 -0.031828 0.176180
v -0.158813 -0.031590 0.060892
v -0.149833 -0.029804 -0.053613
v -0.133925 -0.026639 -0.154430
v -0.108384 -0.021559 -0.231483
v -0.075066 -0.014932 -0.278121
v -0.038268 -0.007612 -0.295413
v -0.159073 0.000000 0.348877
v -0.161517 0.000000 0.277402
v -0.163144 0.000000 0.176180
v -0.161925 0.000000 0.060892
v -0.152769 -0.000000 -0.053613
v -0.136549 -0.000000 -0.154430
v -0.110508 -0.000000 -0.231483
v -0.076537 -0.000000 -0.278121
v -0.039018 -0.000000 -0.295413
v -0.156017 0.031034 0.348877
v -0.158413 0.031510 0.277402
v -0.160009 0.031828 0.176180
v -0.158813 0.031590 0.060892
v -0.149833 0.029804 -0.053613
v -0.133925 0.026639 -0.154430
v -0.108384 0.021559 -0.231483
v -0.075066 0.014932 -0.278121
v -0.038268 0.007612 -0.295413
v -0.146964 0.060875 0.348877
v -0.149222 0.061810 0.277402
v -0.150725 0.062433 0.176180
v -0.149599 0.061966 0.060892
v -0.141140 0.058462 -0.053613
v -0.126155 0.052255 -0.154430
v -0.102096 0.042290 -0.231483
v -0.070711 0.029289 -0.278121
v -0.036048 0.014932 -0.295413
v -0.132265 0.088376 0.348877
v -0.134296 0.089734 0.277402
v -0.135649 0.090638 0.176180
v -0.134635 0.089961 0.060892
v -0.127022 0.084874 -0.053613
v -0.113536 0.075862 -0.154430
v -0.091884 0.061395 -0.231483
v -0.063638 0.042521 -0.278121
v -0.032442 0.021677 -0.295413
v -0.112482 0.112482 0.348877
v -0.114209 0.114209 0.277402
v -0.115360 0.115360 0.176180
v -0.114498 0.114498 0.060892
v -0.108024 0.108024 -0.053613
v -0.096555 0.096555 -0.154430
v -0.078141 0.078141 -0.231483
v -0.054120 0.054120 -0.278121
v -0.027590 0.027590 -0.295413
v -0.088376 0.132265 0.348877
v -0.089734 0.134296 0.277402
v -0.090638 0.135649 0.176180
v -0.089961 0.134635 0.060892
v -0.084874 0.127022 -0.053613
v -0.075862 0.113536 -0.154430
v -0.061395 0.091884 -0.231483
v -0.042521 0.063638 -0.278121
v -0.021677 0.032442 -0.295413
v -0.060875 0.146965 0.348877
v -0.061810 0.149222 0.277402
v -0.062432 0.150725 0.176180
v -0.061966 0.149599 0.060892
v -0.058462 0.141140 -0.053613
v -0.052255 0.126155 -0.154430
v -0.042289 0.102096 -0.231483
v -0.029289 0.070711 -0.278121
v -0.014932 0.036048 -0.295413
v -0.031034 0.156017 0.348877
v -0.031510 0.158413 0.277402
v -0.031828 0.160009 0.176180
v -0.031590 0.158813 0.060892
v -0.029804 0.149833 -0.053613
v -0.026639 0.133925 -0.154430
v -0.021559 0.108384 -0.231483
v -0.014932 0.075066 -0.278121
v -0.007612 0.038268 -0.295413
v 0.000000 0.161925 0.060892
v 0.000000 0.136549 -0.154430
v 0.000000 0.110508 -0.231483
v 0.000000 0.076537 -0.278121
v 0.000000 0.039018 -0.295413
vn -0.0000 0.2890 -0.9573
vn -0.0000 0.6567 -0.7542
vn 0.1281 0.6441 -0.7542
vn 0.0564 0.2835 -0.9573
vn -0.0000 0.9997 0.0251
vn -0.0000 0.9994 0.0342
vn 0.1950 0.9802 0.0342
vn 0.1950 0.9805 0.0251
vn -0.0000 -0.0000 -1.0000
vn -0.0000 1.0000 0.0027
vn 0.1951 0.9808 0.0027
vn -0.0000 0.9990 -0.0451
vn 0.1949 0.9798 -0.0451
vn -0.0000 0.9929 -0.1191
vn 0.1937 0.9738 -0.1187
vn -0.0000 0.9714 -0.2376
vn 0.1895 0.9527 -0.2377
vn -0.0000 0.8932 -0.4496
vn 0.1743 0.8761 -0.4496
vn 0.3418 0.8252 -0.4496
vn 0.2513 0.6067 -0.7542
vn 0.1106 0.2670 -0.9573
vn 0.3825 0.9233 0.0342
vn 0.3826 0.9236 0.0251
vn 0.3827 0.9239 0.0027
vn 0.3823 0.9229 -0.0451
vn 0.3800 0.9173 -0.1191
vn 0.3717 0.8974 -0.2377
vn 0.5556 0.8315 0.0027
vn 0.5550 0.8306 -0.0451
vn 0.5516 0.8256 -0.1187
vn 0.5397 0.8076 -0.2377
vn 0.4963 0.7427 -0.4496
vn 0.3648 0.5460 -0.7542
vn 0.1606 0.2403 -0.9573
vn 0.5552 0.8310 0.0342
vn 0.5554 0.8312 0.0251
vn 0.6316 0.6316 -0.4496
vn 0.4643 0.4643 -0.7542
vn 0.2044 0.2044 -0.9573
vn 0.7067 0.7067 0.0342
vn 0.7069 0.7069 0.0251
vn 0.7071 0.7071 0.0027
vn 0.7064 0.7064 -0.0451
vn 0.7021 0.7021 -0.1187
vn 0.6869 0.6869 -0.2376
vn 0.8306 0.5550 -0.0451
vn 0.8256 0.5516 -0.1187
vn 0.8076 0.5397 -0.2377
vn 0.7427 0.4963 -0.4496
vn 0.5460 0.3648 -0.7542
vn 0.2403 0.1606 -0.9573
vn 0.8310 0.5552 0.0342
vn 0.8312 0.5554 0.0251
vn 0.8315 0.5556 0.0027
vn 0.6067 0.2513 -0.7542
vn 0.2670 0.1106 -0.9573
vn 0.9233 0.3825 0.0342
vn 0.9236 0.3826 0.0251
vn 0.9239 0.3827 0.0027
vn 0.9229 0.3823 -0.0451
vn 0.9173 0.3800 -0.1191
vn 0.8974 0.3717 -0.2377
vn 0.8252 0.3418 -0.4496
vn 0.9738 0.1937 -0.1187
vn 0.9527 0.1895 -0.2376
vn 0.8761 0.1743 -0.4496
vn 0.6441 0.1281 -0.7542
vn 0.2835 0.0564 -0.9573
vn 0.9802 0.1950 0.0342
vn 0.9805 0.1950 0.0251
vn 0.9808 0.1951 0.0027
vn 0.9798 0.1949 -0.0451
vn 0.9994 -0.0000 0.0342
vn 0.9997 -0.0000 0.0251
vn 0.2890 -0.0000 -0.9573
vn 1.0000 -0.0000 0.0027
vn 0.9990 -0.0000 -0.0451
vn 0.9929 -0.0000 -0.1191
vn 0.9714 -0.0000 -0.2376
vn 0.8932 -0.0000 -0.4496
vn 0.6567 -0.0000 -0.7542
vn 0.9738 -0.1937 -0.1191
vn 0.9527 -0.1895 -0.2376
vn 0.8761 -0.1743 -0.4496
vn 0.6441 -0.1281 -0.7542
vn 0.2835 -0.0564 -0.9573
vn 0.9802 -0.1950 0.0342
vn 0.9805 -0.1950 0.0251
vn 0.9808 -0.1951 0.0027
vn 0.9798 -0.1949 -0.0451
vn 0.2670 -0.1106 -0.9573
vn 0.9236 -0.3826 0.0251
vn 0.9239 -0.3827 0.0027
vn 0.9229 -0.3823 -0.0451
vn 0.9173 -0.3800 -0.1191
vn 0.8974 -0.3717 -0.2377
vn 0.8252 -0.3418 -0.4496
vn 0.6067 -0.2513 -0.7542
vn 0.9233 -0.3825 0.0342
vn 0.8077 -0.5397 -0.2376
vn 0.7427 -0.4963 -0.4496
vn 0.5460 -0.3648 -0.7542
vn 0.2403 -0.1606 -0.9573
vn 0.8310 -0.5552 0.0342
vn 0.8312 -0.5554 0.0251
vn 0.8315 -0.5556 0.0027
vn 0.8306 -0.5550 -0.0451
vn 0.8256 -0.5516 -0.1186
vn 0.7069 -0.7069 0.0251
vn 0.7071 -0.7071 0.0027
vn 0.7064 -0.7064 -0.0451
vn 0.7021 -0.7021 -0.1186
vn 0.6869 -0.6869 -0.2376
vn 0.6316 -0.6316 -0.4496
vn 0.4643 -0.4643 -0.7542
vn 0.2044 -0.2044 -0.9573
vn 0.7067 -0.7067 0.0342
vn 0.5397 -0.8077 -0.2376
vn 0.4963 -0.7427 -0.4496
vn 0.3648 -0.5460 -0.7542
vn 0.1606 -0.2403 -0.9573
vn 0.5552 -0.8310 0.0342
vn 0.5554 -0.8312 0.0251
vn 0.5556 -0.8315 0.0027
vn 0.5550 -0.8306 -0.0451
vn 0.5516 -0.8256 -0.1187
vn 0.3827 -0.9239 0.0027
vn 0.3823 -0.9229 -0.0451
vn 0.3800 -0.9173 -0.1191
vn 0.3717 -0.8974 -0.2377
vn 0.3418 -0.8252 -0.4496
vn 0.2513 -0.6067 -0.7542
vn 0.1106 -0.2670 -0.9573
vn 0.3825 -0.9233 0.0342
vn 0.3826 -0.9236 0.0251
vn 0.1743 -0.8761 -0.4496
vn 0.1281 -0.6441 -0.7542
vn 0.0564 -0.2835 -0.9573
vn 0.1950 -0.9802 0.0342
vn 0.1950 -0.9805 0.0251
vn 0.1951 -0.9808 0.0027
vn 0.1949 -0.9798 -0.0451
vn 0.1937 -0.9739 -0.1186
vn 0.1895 -0.9527 -0.2376
vn -0.0000 -0.9990 -0.0451
vn -0.0000 -0.9929 -0.1191
vn -0.0000 -0.9713 -0.2377
vn -0.0000 -0.8932 -0.4496
vn -0.0000 -0.6567 -0.7542
vn -0.0000 -0.2890 -0.9573
vn -0.0000 -0.9994 0.0342
vn -0.0000 -0.9997 0.0251
vn -0.0000 -1.0000 0.0027
vn -0.1281 -0.6441 -0.7542
vn -0.0564 -0.2835 -0.9573
vn -0.1950 -0.9802 0.0342
vn -0.1950 -0.9805 0.0251
vn -0.1951 -0.9808 0.0027
vn -0.1949 -0.9798 -0.0451
vn -0.1937 -0.9738 -0.1187
vn -0.1895 -0.9527 -0.2377
vn -0.1743 -0.8761 -0.4496
vn -0.3823 -0.9229 -0.0451
vn -0.3800 -0.9173 -0.1191
vn -0.3717 -0.8974 -0.2377
vn -0.3418 -0.8252 -0.4496
vn -0.2513 -0.6067 -0.7542
vn -0.1106 -0.2670 -0.9573
vn -0.3825 -0.9233 0.0342
vn -0.3826 -0.9236 0.0251
vn -0.3827 -0.9239 0.0027
vn -0.3648 -0.5460 -0.7542
vn -0.1606 -0.2403 -0.9573
vn -0.5553 -0.8310 0.0342
vn -0.5554 -0.8312 0.0251
vn -0.5556 -0.8315 0.0027
vn -0.5550 -0.8306 -0.0451
vn -0.5516 -0.8256 -0.1187
vn -0.5397 -0.8076 -0.2377
vn -0.4963 -0.7427 -0.4496
vn -0.7021 -0.7021 -0.1187
vn -0.6869 -0.6869 -0.2376
vn -0.6316 -0.6316 -0.4496
vn -0.4643 -0.4643 -0.7542
vn -0.2044 -0.2044 -0.9573
vn -0.7067 -0.7067 0.0342
vn -0.7069 -0.7069 0.0251
vn -0.7071 -0.7071 0.0028
vn -0.7064 -0.7064 -0.0451
vn -0.8310 -0.5553 0.0342
vn -0.8312 -0.5554 0.0251
vn -0.2403 -0.1606 -0.9573
vn -0.8315 -0.5556 0.0027
vn -0.8306 -0.5550 -0.0451
vn -0.8256 -0.5516 -0.1187
vn -0.8076 -0.5397 -0.2377
vn -0.7427 -0.4963 -0.4496
vn -0.5460 -0.3648 -0.7542
vn -0.9173 -0.3800 -0.1191
vn -0.8974 -0.3717 -0.2377
vn -0.8252 -0.3418 -0.4496
vn -0.6067 -0.2513 -0.7542
vn -0.2670 -0.1106 -0.9573
vn -0.9233 -0.3825 0.0342
vn -0.9236 -0.3826 0.0251
vn -0.9239 -0.3827 0.0027
vn -0.9229 -0.3823 -0.0451
vn -0.2835 -0.0564 -0.9573
vn -0.9805 -0.1950 0.0251
vn -0.9808 -0.1951 0.0027
vn -0.9798 -0.1949 -0.0451
vn -0.9739 -0.1937 -0.1186
vn -0.9527 -0.1895 -0.2377
vn -0.8761 -0.1743 -0.4496
vn -0.6441 -0.1281 -0.7542
vn -0.9802 -0.1950 0.0342
vn -0.9714 -0.0000 -0.2376
vn -0.8932 -0.0000 -0.4496
vn -0.6567 -0.0000 -0.7542
vn -0.2890 -0.0000 -0.9573
vn -0.9994 -0.0000 0.0342
vn -0.9997 -0.0000 0.0251
vn -1.0000 -0.0000 0.0027
vn -0.9990 -0.0000 -0.0451
vn -0.9929 -0.0000 -0.1191
vn -0.9808 0.1951 0.0027
vn -0.9798 0.1949 -0.0451
vn -0.9738 0.1937 -0.1187
vn -0.9527 0.1895 -0.2377
vn -0.8761 0.1743 -0.4496
vn -0.6441 0.1281 -0.7542
vn -0.2835 0.0564 -0.9573
vn -0.9802 0.1950 0.0342
vn -0.9805 0.1950 0.0251
vn -0.8252 0.3418 -0.4496
vn -0.6067 0.2513 -0.7542
vn -0.2670 0.1106 -0.9573
vn -0.9233 0.3825 0.0342
vn -0.9236 0.3826 0.0251
vn -0.9239 0.3827 0.0027
vn -0.9229 0.3823 -0.0451
vn -0.9173 0.3800 -0.1191
vn -0.8974 0.3717 -0.2377
vn -0.8315 0.5556 0.0027
vn -0.8306 0.5550 -0.0451
vn -0.8256 0.5516 -0.1191
vn -0.8077 0.5397 -0.2376
vn -0.7427 0.4963 -0.4496
vn -0.5460 0.3648 -0.7542
vn -0.2403 0.1606 -0.9573
vn -0.8310 0.5552 0.0342
vn -0.8312 0.5554 0.0251
vn -0.6316 0.6316 -0.4496
vn -0.4643 0.4643 -0.7542
vn -0.2044 0.2044 -0.9573
vn -0.7067 0.7067 0.0342
vn -0.7069 0.7069 0.0251
vn -0.7071 0.7071 0.0027
vn -0.7064 0.7064 -0.0451
vn -0.7021 0.7021 -0.1191
vn -0.6869 0.6869 -0.2376
vn -0.5550 0.8306 -0.0451
vn -0.5516 0.8256 -0.1191
vn -0.5397 0.8077 -0.2376
vn -0.4963 0.7427 -0.4496
vn -0.3648 0.5460 -0.7542
vn -0.1606 0.2403 -0.9573
vn -0.5553 0.8310 0.0342
vn -0.5554 0.8312 0.0251
vn -0.5556 0.8315 0.0027
vn -0.2513 0.6067 -0.7542
vn -0.1106 0.2670 -0.9573
vn -0.3825 0.9233 0.0342
vn -0.3826 0.9236 0.0251
vn -0.3827 0.9239 0.0027
vn -0.3823 0.9229 -0.0451
vn -0.3800 0.9173 -0.1187
vn -0.3717 0.8974 -0.2377
vn -0.3418 0.8252 -0.4496
vn -0.1949 0.9798 -0.0451
vn -0.1937 0.9739 -0.1186
vn -0.1895 0.9527 -0.2377
vn -0.1743 0.8761 -0.4496
vn -0.1281 0.6441 -0.7542
vn -0.0564 0.2835 -0.9573
vn -0.1950 0.9802 0.0342
vn -0.1950 0.9805 0.0251
vn -0.1951 0.9808 0.0027
vt 0.750000 0.111005
vt 0.750000 0.222147
vt 0.718750 0.222147
vt 0.718750 0.111005
vt 0.750000 0.888995
vt 0.750000 1.000136
vt 0.718750 1.000136
vt 0.718750 0.888995
vt 0.734375 -0.000136
vt 0.750000 0.777853
vt 0.718750 0.777853
vt 0.750000 0.666712
vt 0.718750 0.666712
vt 0.750000 0.555571
vt 0.718750 0.555571
vt 0.750000 0.444429
vt 0.718750 0.444429
vt 0.750000 0.333288
vt 0.718750 0.333288
vt 0.687500 0.333288
vt 0.687500 0.222147
vt 0.687500 0.111005
vt 0.687500 1.000136
vt 0.687500 0.888995
vt 0.703125 -0.000136
vt 0.687500 0.777853
vt 0.687500 0.666712
vt 0.687500 0.555571
vt 0.687500 0.444429
vt 0.656250 0.777853
vt 0.656250 0.666712
vt 0.656250 0.555571
vt 0.656250 0.444429
vt 0.656250 0.333288
vt 0.656250 0.222147
vt 0.656250 0.111005
vt 0.656250 1.000136
vt 0.656250 0.888995
vt 0.671875 -0.000136
vt 0.625000 0.333288
vt 0.625000 0.222147
vt 0.625000 0.111005
vt 0.625000 1.000136
vt 0.625000 0.888995
vt 0.640625 -0.000136
vt 0.625000 0.777853
vt 0.625000 0.666712
vt 0.625000 0.555571
vt 0.625000 0.444429
vt 0.593750 0.666712
vt 0.593750 0.555571
vt 0.593750 0.444429
vt 0.593750 0.333288
vt 0.593750 0.222147
vt 0.593750 0.111005
vt 0.593750 1.000136
vt 0.593750 0.888995
vt 0.609375 -0.000136
vt 0.593750 0.777853
vt 0.562500 0.222147
vt 0.562500 0.111005
vt 0.562500 1.000136
vt 0.562500 0.888995
vt 0.578125 -0.000136
vt 0.562500 0.777853
vt 0.562500 0.666712
vt 0.562500 0.555571
vt 0.562500 0.444429
vt 0.562500 0.333288
vt 0.531250 0.555571
vt 0.531250 0.444429
vt 0.531250 0.333288
vt 0.531250 0.222147
vt 0.531250 0.111005
vt 0.531250 1.000136
vt 0.531250 0.888995
vt 0.546875 -0.000136
vt 0.531250 0.777853
vt 0.531250 0.666712
vt 0.500000 1.000136
vt 0.500000 0.888995
vt 0.515625 -0.000136
vt 0.500000 0.111005
vt 0.500000 0.777853
vt 0.500000 0.666712
vt 0.500000 0.555571
vt 0.500000 0.444429
vt 0.500000 0.333288
vt 0.500000 0.222147
vt 0.468750 0.555571
vt 0.468750 0.444429
vt 0.468750 0.333288
vt 0.468750 0.222147
vt 0.468750 0.111005
vt 0.468750 1.000136
vt 0.468750 0.888995
vt 0.484375 -0.000136
vt 0.468750 0.777853
vt 0.468750 0.666712
vt 0.453125 -0.000136
vt 0.437500 0.111005
vt 0.437500 0.888995
vt 0.437500 0.777853
vt 0.437500 0.666712
vt 0.437500 0.555571
vt 0.437500 0.444429
vt 0.437500 0.333288
vt 0.437500 0.222147
vt 0.437500 1.000136
vt 0.406250 0.444429
vt 0.406250 0.333288
vt 0.406250 0.222147
vt 0.406250 0.111005
vt 0.406250 1.000136
vt 0.406250 0.888995
vt 0.421875 -0.000136
vt 0.406250 0.777853
vt 0.406250 0.666712
vt 0.406250 0.555571
vt 0.375000 0.888995
vt 0.375000 0.777853
vt 0.375000 0.666712
vt 0.375000 0.555571
vt 0.375000 0.444429
vt 0.375000 0.333288
vt 0.375000 0.222147
vt 0.375000 0.111005
vt 0.375000 1.000136
vt 0.390625 -0.000136
vt 0.343750 0.444429
vt 0.343750 0.333288
vt 0.343750 0.222147
vt 0.343750 0.111005
vt 0.343750 1.000136
vt 0.343750 0.888995
vt 0.359375 -0.000136
vt 0.343750 0.777853
vt 0.343750 0.666712
vt 0.343750 0.555571
vt 0.312500 0.777853
vt 0.312500 0.666712
vt 0.312500 0.555571
vt 0.312500 0.444429
vt 0.312500 0.333288
vt 0.312500 0.222147
vt 0.312500 0.111005
vt 0.312500 1.000136
vt 0.312500 0.888995
vt 0.328125 -0.000136
vt 0.281250 0.333288
vt 0.281250 0.222147
vt 0.281250 0.111005
vt 0.281250 1.000136
vt 0.281250 0.888995
vt 0.296875 -0.000136
vt 0.281250 0.777853
vt 0.281250 0.666712
vt 0.281250 0.555571
vt 0.281250 0.444429
vt 0.250000 0.666712
vt 0.250000 0.555571
vt 0.250000 0.444429
vt 0.250000 0.333288
vt 0.250000 0.222147
vt 0.250000 0.111005
vt 0.250000 1.000136
vt 0.250000 0.888995
vt 0.265625 -0.000136
vt 0.250000 0.777853
vt 0.218750 0.222147
vt 0.218750 0.111005
vt 0.218750 1.000136
vt 0.218750 0.888995
vt 0.234375 -0.000136
vt 0.218750 0.777853
vt 0.218750 0.666712
vt 0.218750 0.555571
vt 0.218750 0.444429
vt 0.218750 0.333288
vt 0.187500 0.666712
vt 0.187500 0.555571
vt 0.187500 0.444429
vt 0.187500 0.333288
vt 0.187500 0.222147
vt 0.187500 0.111005
vt 0.187500 1.000136
vt 0.187500 0.888995
vt 0.203125 -0.000136
vt 0.187500 0.777853
vt 0.156250 0.222147
vt 0.156250 0.111005
vt 0.156250 1.000136
vt 0.156250 0.888995
vt 0.171875 -0.000136
vt 0.156250 0.777853
vt 0.156250 0.666712
vt 0.156250 0.555571
vt 0.156250 0.444429
vt 0.156250 0.333288
vt 0.125000 0.555571
vt 0.125000 0.444429
vt 0.125000 0.333288
vt 0.125000 0.222147
vt 0.125000 0.111005
vt 0.125000 1.000136
vt 0.125000 0.888995
vt 0.140625 -0.000136
vt 0.125000 0.777853
vt 0.125000 0.666712
vt 0.093750 1.000136
vt 0.093750 0.888995
vt 0.109375 -0.000136
vt 0.093750 0.111005
vt 0.093750 0.777853
vt 0.093750 0.666712
vt 0.093750 0.555571
vt 0.093750 0.444429
vt 0.093750 0.333288
vt 0.093750 0.222147
vt 0.062500 0.555570
vt 0.062500 0.444429
vt 0.062500 0.333288
vt 0.062500 0.222147
vt 0.062500 0.111005
vt 0.062500 1.000136
vt 0.062500 0.888995
vt 0.078125 -0.000136
vt 0.062500 0.777853
vt 0.062500 0.666712
vt 0.046875 -0.000136
vt 0.031250 0.111005
vt 0.031250 0.888995
vt 0.031250 0.777853
vt 0.031250 0.666712
vt 0.031250 0.555571
vt 0.031250 0.444429
vt 0.031250 0.333288
vt 0.031250 0.222147
vt 0.031250 1.000136
vt 0.000000 0.444429
vt 0.000000 0.333288
vt 0.000000 0.222147
vt 0.000000 0.111005
vt 0.000000 1.000136
vt 0.000000 0.888995
vt 0.015625 -0.000136
vt 0.000000 0.777853
vt 0.000000 0.666712
vt 0.000000 0.555571
vt 1.000000 0.666712
vt 1.000000 0.777853
vt 0.968750 0.777853
vt 0.968750 0.666712
vt 1.000000 0.555571
vt 0.968750 0.555570
vt 1.000000 0.444429
vt 0.968750 0.444429
vt 1.000000 0.333288
vt 0.968750 0.333288
vt 1.000000 0.222147
vt 0.968750 0.222147
vt 1.000000 0.111005
vt 0.968750 0.111005
vt 1.000000 0.888995
vt 1.000000 1.000136
vt 0.968750 1.000136
vt 0.968750 0.888995
vt 0.984375 -0.000136
vt 0.937500 0.333288
vt 0.937500 0.222147
vt 0.937500 0.111005
vt 0.937500 1.000136
vt 0.937500 0.888995
vt 0.953125 -0.000136
vt 0.937500 0.777853
vt 0.937500 0.666712
vt 0.937500 0.555570
vt 0.937500 0.444429
vt 0.906250 0.777853
vt 0.906250 0.666712
vt 0.906250 0.555570
vt 0.906250 0.444429
vt 0.906250 0.333288
vt 0.906250 0.222147
vt 0.906250 0.111005
vt 0.906250 1.000136
vt 0.906250 0.888995
vt 0.921875 -0.000136
vt 0.875000 0.333288
vt 0.875000 0.222147
vt 0.875000 0.111005
vt 0.875000 1.000136
vt 0.875000 0.888995
vt 0.890625 -0.000136
vt 0.875000 0.777853
vt 0.875000 0.666712
vt 0.875000 0.555570
vt 0.875000 0.444429
vt 0.843750 0.666712
vt 0.843750 0.555570
vt 0.843750 0.444429
vt 0.843750 0.333288
vt 0.843750 0.222147
vt 0.843750 0.111005
vt 0.843750 1.000136
vt 0.843750 0.888995
vt 0.859375 -0.000136
vt 0.843750 0.777853
vt 0.812500 0.222147
vt 0.812500 0.111005
vt 0.812500 1.000136
vt 0.812500 0.888995
vt 0.828125 -0.000136
vt 0.812500 0.777853
vt 0.812500 0.666712
vt 0.812500 0.555570
vt 0.812500 0.444429
vt 0.812500 0.333288
vt 0.781250 0.666712
vt 0.781250 0.555570
vt 0.781250 0.444429
vt 0.781250 0.333288
vt 0.781250 0.222147
vt 0.781250 0.111005
vt 0.781250 1.000136
vt 0.781250 0.888995
vt 0.796875 -0.000136
vt 0.781250 0.777853
vt 0.765625 -0.000136
s 1
f 289/1/1 288/2/2 13/3/3 14/4/4
f 2/5/5 1/6/6 6/7/7 7/8/8
f 5/9/9 289/1/1 14/4/4
f 3/10/10 2/5/5 7/8/8 8/11/11
f 285/12/12 3/10/10 8/11/11 9/13/13
f 4/14/14 285/12/12 9/13/13 10/15/15
f 286/16/16 4/14/14 10/15/15 11/17/17
f 287/18/18 286/16/16 11/17/17 12/19/19
f 288/2/2 287/18/18 12/19/19 13/3/3
f 13/3/3 12/19/19 21/20/20 22/21/21
f 14/4/4 13/3/3 22/21/21 23/22/22
f 7/8/8 6/7/7 15/23/23 16/24/24
f 5/25/9 14/4/4 23/22/22
f 8/11/11 7/8/8 16/24/24 17/26/25
f 9/13/13 8/11/11 17/26/25 18/27/26
f 10/15/15 9/13/13 18/27/26 19/28/27
f 11/17/17 10/15/15 19/28/27 20/29/28
f 12/19/19 11/17/17 20/29/28 21/20/20
f 18/27/26 17/26/25 26/30/29 27/31/30
f 19/28/27 18/27/26 27/31/30 28/32/31
f 20/29/28 19/28/27 28/32/31 29/33/32
f 21/20/20 20/29/28 29/33/32 30/34/33
f 22/21/21 21/20/20 30/34/33 31/35/34
f 23/22/22 22/21/21 31/35/34 32/36/35
f 16/24/24 15/23/23 24/37/36 25/38/37
f 5/39/9 23/22/22 32/36/35
f 17/26/25 16/24/24 25/38/37 26/30/29
f 31/35/34 30/34/33 39/40/38 40/41/39
f 32/36/35 31/35/34 40/41/39 41/42/40
f 25/38/37 24/37/36 33/43/41 34/44/42
f 5/45/9 32/36/35 41/42/40
f 26/30/29 25/38/37 34/44/42 35/46/43
f 27/31/30 26/30/29 35/46/43 36/47/44
f 28/32/31 27/31/30 36/47/44 37/48/45
f 29/33/32 28/32/31 37/48/45 38/49/46
f 30/34/33 29/33/32 38/49/46 39/40/38
f 37/48/45 36/47/44 45/50/47 46/51/48
f 38/49/46 37/48/45 46/51/48 47/52/49
f 39/40/38 38/49/46 47/52/49 48/53/50
f 40/41/39 39/40/38 48/53/50 49/54/51
f 41/42/40 40/41/39 49/54/51 50/55/52
f 34/44/42 33/43/41 42/56/53 43/57/54
f 5/58/9 41/42/40 50/55/52
f 35/46/43 34/44/42 43/57/54 44/59/55
f 36/47/44 35/46/43 44/59/55 45/50/47
f 50/55/52 49/54/51 58/60/56 59/61/57
f 43/57/54 42/56/53 51/62/58 52/63/59
f 5/64/9 50/55/52 59/61/57
f 44/59/55 43/57/54 52/63/59 53/65/60
f 45/50/47 44/59/55 53/65/60 54/66/61
f 46/51/48 45/50/47 54/66/61 55/67/62
f 47/52/49 46/51/48 55/67/62 56/68/63
f 48/53/50 47/52/49 56/68/63 57/69/64
f 49/54/51 48/53/50 57/69/64 58/60/56
f 56/68/63 55/67/62 64/70/65 65/71/66
f 57/69/64 56/68/63 65/71/66 66/72/67
f 58/60/56 57/69/64 66/72/67 67/73/68
f 59/61/57 58/60/56 67/73/68 68/74/69
f 52/63/59 51/62/58 60/75/70 61/76/71
f 5/77/9 59/61/57 68/74/69
f 53/65/60 52/63/59 61/76/71 62/78/72
f 54/66/61 53/65/60 62/78/72 63/79/73
f 55/67/62 54/66/61 63/79/73 64/70/65
f 61/76/71 60/75/70 69/80/74 70/81/75
f 5/82/9 68/74/69 77/83/76
f 62/78/72 61/76/71 70/81/75 71/84/77
f 63/79/73 62/78/72 71/84/77 72/85/78
f 64/70/65 63/79/73 72/85/78 73/86/79
f 65/71/66 64/70/65 73/86/79 74/87/80
f 66/72/67 65/71/66 74/87/80 75/88/81
f 67/73/68 66/72/67 75/88/81 76/89/82
f 68/74/69 67/73/68 76/89/82 77/83/76
f 74/87/80 73/86/79 82/90/83 83/91/84
f 75/88/81 74/87/80 83/91/84 84/92/85
f 76/89/82 75/88/81 84/92/85 85/93/86
f 77/83/76 76/89/82 85/93/86 86/94/87
f 70/81/75 69/80/74 78/95/88 79/96/89
f 5/97/9 77/83/76 86/94/87
f 71/84/77 70/81/75 79/96/89 80/98/90
f 72/85/78 71/84/77 80/98/90 81/99/91
f 73/86/79 72/85/78 81/99/91 82/90/83
f 5/100/9 86/94/87 95/101/92
f 80/98/90 79/96/89 88/102/93 89/103/94
f 81/99/91 80/98/90 89/103/94 90/104/95
f 82/90/83 81/99/91 90/104/95 91/105/96
f 83/91/84 82/90/83 91/105/96 92/106/97
f 84/92/85 83/91/84 92/106/97 93/107/98
f 85/93/86 84/92/85 93/107/98 94/108/99
f 86/94/87 85/93/86 94/108/99 95/101/92
f 79/96/89 78/95/88 87/109/100 88/102/93
f 93/107/98 92/106/97 101/110/101 102/111/102
f 94/108/99 93/107/98 102/111/102 103/112/103
f 95/101/92 94/108/99 103/112/103 104/113/104
f 88/102/93 87/109/100 96/114/105 97/115/106
f 5/116/9 95/101/92 104/113/104
f 89/103/94 88/102/93 97/115/106 98/117/107
f 90/104/95 89/103/94 98/117/107 99/118/108
f 91/105/96 90/104/95 99/118/108 100/119/109
f 92/106/97 91/105/96 100/119/109 101/110/101
f 98/117/107 97/115/106 106/120/110 107/121/111
f 99/118/108 98/117/107 107/121/111 108/122/112
f 100/119/109 99/118/108 108/122/112 109/123/113
f 101/110/101 100/119/109 109/123/113 110/124/114
f 102/111/102 101/110/101 110/124/114 111/125/115
f 103/112/103 102/111/102 111/125/115 112/126/116
f 104/113/104 103/112/103 112/126/116 113/127/117
f 97/115/106 96/114/105 105/128/118 106/120/110
f 5/129/9 104/113/104 113/127/117
f 111/125/115 110/124/114 119/130/119 120/131/120
f 112/126/116 111/125/115 120/131/120 121/132/121
f 113/127/117 112/126/116 121/132/121 122/133/122
f 106/120/110 105/128/118 114/134/123 115/135/124
f 5/136/9 113/127/117 122/133/122
f 107/121/111 106/120/110 115/135/124 116/137/125
f 108/122/112 107/121/111 116/137/125 117/138/126
f 109/123/113 108/122/112 117/138/126 118/139/127
f 110/124/114 109/123/113 118/139/127 119/130/119
f 117/138/126 116/137/125 125/140/128 126/141/129
f 118/139/127 117/138/126 126/141/129 127/142/130
f 119/130/119 118/139/127 127/142/130 128/143/131
f 120/131/120 119/130/119 128/143/131 129/144/132
f 121/132/121 120/131/120 129/144/132 130/145/133
f 122/133/122 121/132/121 130/145/133 131/146/134
f 115/135/124 114/134/123 123/147/135 124/148/136
f 5/149/9 122/133/122 131/146/134
f 116/137/125 115/135/124 124/148/136 125/140/128
f 130/145/133 129/144/132 138/150/137 139/151/138
f 131/146/134 130/145/133 139/151/138 140/152/139
f 124/148/136 123/147/135 132/153/140 133/154/141
f 5/155/9 131/146/134 140/152/139
f 125/140/128 124/148/136 133/154/141 134/156/142
f 126/141/129 125/140/128 134/156/142 135/157/143
f 127/142/130 126/141/129 135/157/143 136/158/144
f 128/143/131 127/142/130 136/158/144 137/159/145
f 129/144/132 128/143/131 137/159/145 138/150/137
f 136/158/144 135/157/143 144/160/146 145/161/147
f 137/159/145 136/158/144 145/161/147 146/162/148
f 138/150/137 137/159/145 146/162/148 147/163/149
f 139/151/138 138/150/137 147/163/149 148/164/150
f 140/152/139 139/151/138 148/164/150 149/165/151
f 133/154/141 132/153/140 141/166/152 142/167/153
f 5/168/9 140/152/139 149/165/151
f 134/156/142 133/154/141 142/167/153 143/169/154
f 135/157/143 134/156/142 143/169/154 144/160/146
f 149/165/151 148/164/150 157/170/155 158/171/156
f 142/167/153 141/166/152 150/172/157 151/173/158
f 5/174/9 149/165/151 158/171/156
f 143/169/154 142/167/153 151/173/158 152/175/159
f 144/160/146 143/169/154 152/175/159 153/176/160
f 145/161/147 144/160/146 153/176/160 154/177/161
f 146/162/148 145/161/147 154/177/161 155/178/162
f 147/163/149 146/162/148 155/178/162 156/179/163
f 148/164/150 147/163/149 156/179/163 157/170/155
f 154/177/161 153/176/160 162/180/164 163/181/165
f 155/178/162 154/177/161 163/181/165 164/182/166
f 156/179/163 155/178/162 164/182/166 165/183/167
f 157/170/155 156/179/163 165/183/167 166/184/168
f 158/171/156 157/170/155 166/184/168 167/185/169
f 151/173/158 150/172/157 159/186/170 160/187/171
f 5/188/9 158/171/156 167/185/169
f 152/175/159 151/173/158 160/187/171 161/189/172
f 153/176/160 152/175/159 161/189/172 162/180/164
f 167/185/169 166/184/168 175/190/173 176/191/174
f 160/187/171 159/186/170 168/192/175 169/193/176
f 5/194/9 167/185/169 176/191/174
f 161/189/172 160/187/171 169/193/176 170/195/177
f 162/180/164 161/189/172 170/195/177 171/196/178
f 163/181/165 162/180/164 171/196/178 172/197/179
f 164/182/166 163/181/165 172/197/179 173/198/180
f 165/183/167 164/182/166 173/198/180 174/199/181
f 166/184/168 165/183/167 174/199/181 175/190/173
f 173/198/180 172/197/179 181/200/182 182/201/183
f 174/199/181 173/198/180 182/201/183 183/202/184
f 175/190/173 174/199/181 183/202/184 184/203/185
f 176/191/174 175/190/173 184/203/185 185/204/186
f 169/193/176 168/192/175 177/205/187 178/206/188
f 5/207/9 176/191/174 185/204/186
f 170/195/177 169/193/176 178/206/188 179/208/189
f 171/196/178 170/195/177 179/208/189 180/209/190
f 172/197/179 171/196/178 180/209/190 181/200/182
f 178/206/188 177/205/187 186/210/191 187/211/192
f 5/212/9 185/204/186 194/213/193
f 179/208/189 178/206/188 187/211/192 188/214/194
f 180/209/190 179/208/189 188/214/194 189/215/195
f 181/200/182 180/209/190 189/215/195 190/216/196
f 182/201/183 181/200/182 190/216/196 191/217/197
f 183/202/184 182/201/183 191/217/197 192/218/198
f 184/203/185 183/202/184 192/218/198 193/219/199
f 185/204/186 184/203/185 193/219/199 194/213/193
f 191/217/197 190/216/196 199/220/200 200/221/201
f 192/218/198 191/217/197 200/221/201 201/222/202
f 193/219/199 192/218/198 201/222/202 202/223/203
f 194/213/193 193/219/199 202/223/203 203/224/204
f 187/211/192 186/210/191 195/225/205 196/226/206
f 5/227/9 194/213/193 203/224/204
f 188/214/194 187/211/192 196/226/206 197/228/207
f 189/215/195 188/214/194 197/228/207 198/229/208
f 190/216/196 189/215/195 198/229/208 199/220/200
f 5/230/9 203/224/204 212/231/209
f 197/228/207 196/226/206 205/232/210 206/233/211
f 198/229/208 197/228/207 206/233/211 207/234/212
f 199/220/200 198/229/208 207/234/212 208/235/213
f 200/221/201 199/220/200 208/235/213 209/236/214
f 201/222/202 200/221/201 209/236/214 210/237/215
f 202/223/203 201/222/202 210/237/215 211/238/216
f 203/224/204 202/223/203 211/238/216 212/231/209
f 196/226/206 195/225/205 204/239/217 205/232/210
f 210/237/215 209/236/214 218/240/218 219/241/219
f 211/238/216 210/237/215 219/241/219 220/242/220
f 212/231/209 211/238/216 220/242/220 221/243/221
f 205/232/210 204/239/217 213/244/222 214/245/223
f 5/246/9 212/231/209 221/243/221
f 206/233/211 205/232/210 214/245/223 215/247/224
f 207/234/212 206/233/211 215/247/224 216/248/225
f 208/235/213 207/234/212 216/248/225 217/249/226
f 209/236/214 208/235/213 217/249/226 218/240/218
f 216/250/225 215/251/224 224/252/227 225/253/228
f 217/254/226 216/250/225 225/253/228 226/255/229
f 218/256/218 217/254/226 226/255/229 227/257/230
f 219/258/219 218/256/218 227/257/230 228/259/231
f 220/260/220 219/258/219 228/259/231 229/261/232
f 221/262/221 220/260/220 229/261/232 230/263/233
f 214/264/223 213/265/222 222/266/234 223/267/235
f 5/268/9 221/262/221 230/263/233
f 215/251/224 214/264/223 223/267/235 224/252/227
f 229/261/232 228/259/231 237/269/236 238/270/237
f 230/263/233 229/261/232 238/270/237 239/271/238
f 223/267/235 222/266/234 231/272/239 232/273/240
f 5/274/9 230/263/233 239/271/238
f 224/252/227 223/267/235 232/273/240 233/275/241
f 225/253/228 224/252/227 233/275/241 234/276/242
f 226/255/229 225/253/228 234/276/242 235/277/243
f 227/257/230 226/255/229 235/277/243 236/278/244
f 228/259/231 227/257/230 236/278/244 237/269/236
f 234/276/242 233/275/241 242/279/245 243/280/246
f 235/277/243 234/276/242 243/280/246 244/281/247
f 236/278/244 235/277/243 244/281/247 245/282/248
f 237/269/236 236/278/244 245/282/248 246/283/249
f 238/270/237 237/269/236 246/283/249 247/284/250
f 239/271/238 238/270/237 247/284/250 248/285/251
f 232/273/240 231/272/239 240/286/252 241/287/253
f 5/288/9 239/271/238 248/285/251
f 233/275/241 232/273/240 241/287/253 242/279/245
f 247/284/250 246/283/249 255/289/254 256/290/255
f 248/285/251 247/284/250 256/290/255 257/291/256
f 241/287/253 240/286/252 249/292/257 250/293/258
f 5/294/9 248/285/251 257/291/256
f 242/279/245 241/287/253 250/293/258 251/295/259
f 243/280/246 242/279/245 251/295/259 252/296/260
f 244/281/247 243/280/246 252/296/260 253/297/261
f 245/282/248 244/281/247 253/297/261 254/298/262
f 246/283/249 245/282/248 254/298/262 255/289/254
f 253/297/261 252/296/260 261/299/263 262/300/264
f 254/298/262 253/297/261 262/300/264 263/301/265
f 255/289/254 254/298/262 263/301/265 264/302/266
f 256/290/255 255/289/254 264/302/266 265/303/267
f 257/291/256 256/290/255 265/303/267 266/304/268
f 250/293/258 249/292/257 258/305/269 259/306/270
f 5/307/9 257/291/256 266/304/268
f 251/295/259 250/293/258 259/306/270 260/308/271
f 252/296/260 251/295/259 260/308/271 261/299/263
f 266/304/268 265/303/267 274/309/272 275/310/273
f 259/306/270 258/305/269 267/311/274 268/312/275
f 5/313/9 266/304/268 275/310/273
f 260/308/271 259/306/270 268/312/275 269/314/276
f 261/299/263 260/308/271 269/314/276 270/315/277
f 262/300/264 261/299/263 270/315/277 271/316/278
f 263/301/265 262/300/264 271/316/278 272/317/279
f 264/302/266 263/301/265 272/317/279 273/318/280
f 265/303/267 264/302/266 273/318/280 274/309/272
f 271/316/278 270/315/277 279/319/281 280/320/282
f 272/317/279 271/316/278 280/320/282 281/321/283
f 273/318/280 272/317/279 281/321/283 282/322/284
f 274/309/272 273/318/280 282/322/284 283/323/285
f 275/310/273 274/309/272 283/323/285 284/324/286
f 268/312/275 267/311/274 276/325/287 277/326/288
f 5/327/9 275/310/273 284/324/286
f 269/314/276 268/312/275 277/326/288 278/328/289
f 270/315/277 269/314/276 278/328/289 279/319/281
f 284/324/286 283/323/285 288/2/2 289/1/1
f 277/326/288 276/325/287 1/6/6 2/5/5
f 5/329/9 284/324/286 289/1/1
f 278/328/289 277/326/288 2/5/5 3/10/10
f 279/319/281 278/328/289 3/10/10 285/12/12
f 280/320/282 279/319/281 285/12/12 4/14/14
f 281/321/283 280/320/282 4/14/14 286/16/16
f 282/322/284 281/321/283 286/16/16 287/18/18
f 283/323/285 282/322/284 287/18/18 288/2/2
