# Blender 5.2.1 LTS
# www.blender.org
mtllib Arena.mtl
o Cylinder.001
v 0.000000 -0.400000 -40.000000
v 0.000000 0.000000 -40.000000
v 4.181139 -0.400000 -39.780876
v 4.181139 0.000000 -39.780876
v 8.316468 -0.400000 -39.125904
v 8.316468 0.000000 -39.125904
v 12.360680 -0.400000 -38.042263
v 12.360680 0.000000 -38.042263
v 16.269466 -0.400000 -36.541817
v 16.269466 0.000000 -36.541817
v 20.000000 -0.400000 -34.641014
v 20.000000 0.000000 -34.641014
v 23.511410 -0.400000 -32.360680
v 23.511410 0.000000 -32.360680
v 26.765224 -0.400000 -29.725792
v 26.765224 0.000000 -29.725792
v 29.725792 -0.400000 -26.765224
v 29.725792 0.000000 -26.765224
v 32.360680 -0.400000 -23.511410
v 32.360680 0.000000 -23.511410
v 34.641014 -0.400000 -20.000000
v 34.641014 0.000000 -20.000000
v 36.541817 -0.400000 -16.269466
v 36.541817 0.000000 -16.269466
v 38.042263 -0.400000 -12.360680
v 38.042263 0.000000 -12.360680
v 39.125904 -0.400000 -8.316468
v 39.125904 0.000000 -8.316468
v 39.780876 -0.400000 -4.181139
v 39.780876 0.000000 -4.181139
v 40.000000 -0.400000 0.000000
v 40.000000 0.000000 0.000000
v 39.780876 -0.400000 4.181139
v 39.780876 0.000000 4.181139
v 39.125904 -0.400000 8.316468
v 39.125904 0.000000 8.316468
v 38.042263 -0.400000 12.360680
v 38.042263 0.000000 12.360680
v 36.541817 -0.400000 16.269466
v 36.541817 0.000000 16.269466
v 34.641014 -0.400000 20.000000
v 34.641014 0.000000 20.000000
v 32.360680 -0.400000 23.511410
v 32.360680 0.000000 23.511410
v 29.725792 -0.400000 26.765224
v 29.725792 0.000000 26.765224
v 26.765224 -0.400000 29.725792
v 26.765224 0.000000 29.725792
v 23.511410 -0.400000 32.360680
v 23.511410 0.000000 32.360680
v 20.000000 -0.400000 34.641014
v 20.000000 0.000000 34.641014
v 16.269466 -0.400000 36.541817
v 16.269466 0.000000 36.541817
v 12.360680 -0.400000 38.042263
v 12.360680 0.000000 38.042263
v 8.316468 -0.400000 39.125904
v 8.316468 0.000000 39.125904
v 4.181139 -0.400000 39.780876
v 4.181139 0.000000 39.780876
v 0.000000 -0.400000 40.000000
v 0.000000 0.000000 40.000000
v -4.181139 -0.400000 39.780876
v -4.181139 0.000000 39.780876
v -8.316468 -0.400000 39.125904
v -8.316468 0.000000 39.125904
v -12.360680 -0.400000 38.042263
v -12.360680 0.000000 38.042263
v -16.269466 -0.400000 36.541817
v -16.269466 0.000000 36.541817
v -20.000000 -0.400000 34.641014
v -20.000000 0.000000 34.641014
v -23.511410 -0.400000 32.360680
v -23.511410 0.000000 32.360680
v -26.765224 -0.400000 29.725792
v -26.765224 0.000000 29.725792
v -29.725792 -0.400000 26.765224
v -29.725792 0.000000 26.765224
v -32.360680 -0.400000 23.511410
v -32.360680 0.000000 23.511410
v -34.641014 -0.400000 20.000000
v -34.641014 0.000000 20.000000
v -36.541817 -0.400000 16.269466
v -36.541817 0.000000 16.269466
v -38.042263 -0.400000 12.360680
v -38.042263 0.000000 12.360680
v -39.125904 -0.400000 8.316468
v -39.125904 0.000000 8.316468
v -39.780876 -0.400000 4.181139
v -39.780876 0.000000 4.181139
v -40.000000 -0.400000 0.000000
v -40.000000 0.000000 0.000000
v -39.780876 -0.400000 -4.181139
v -39.780876 0.000000 -4.181139
v -39.125904 -0.400000 -8.316468
v -39.125904 0.000000 -8.316468
v -38.042263 -0.400000 -12.360680
v -38.042263 0.000000 -12.360680
v -36.541817 -0.400000 -16.269466
v -36.541817 0.000000 -16.269466
v -34.641014 -0.400000 -20.000000
v -34.641014 0.000000 -20.000000
v -32.360680 -0.400000 -23.511410
v -32.360680 0.000000 -23.511410
v -29.725792 -0.400000 -26.765224
v -29.725792 0.000000 -26.765224
v -26.765224 -0.400000 -29.725792
v -26.765224 0.000000 -29.725792
v -23.511410 -0.400000 -32.360680
v -23.511410 0.000000 -32.360680
v -20.000000 -0.400000 -34.641014
v -20.000000 0.000000 -34.641014
v -16.269466 -0.400000 -36.541817
v -16.269466 0.000000 -36.541817
v -12.360680 -0.400000 -38.042263
v -12.360680 0.000000 -38.042263
v -8.316468 -0.400000 -39.125904
v -8.316468 0.000000 -39.125904
v -4.181139 -0.400000 -39.780876
v -4.181139 0.000000 -39.780876
vn 0.0523 -0.0000 -0.9986
vn 0.1564 -0.0000 -0.9877
vn 0.2588 -0.0000 -0.9659
vn 0.3584 -0.0000 -0.9336
vn 0.4540 -0.0000 -0.8910
vn 0.5446 -0.0000 -0.8387
vn 0.6293 -0.0000 -0.7771
vn 0.7071 -0.0000 -0.7071
vn 0.7771 -0.0000 -0.6293
vn 0.8387 -0.0000 -0.5446
vn 0.8910 -0.0000 -0.4540
vn 0.9336 -0.0000 -0.3584
vn 0.9659 -0.0000 -0.2588
vn 0.9877 -0.0000 -0.1564
vn 0.9986 -0.0000 -0.0523
vn 0.9986 -0.0000 0.0523
vn 0.9877 -0.0000 0.1564
vn 0.9659 -0.0000 0.2588
vn 0.9336 -0.0000 0.3584
vn 0.8910 -0.0000 0.4540
vn 0.8387 -0.0000 0.5446
vn 0.7771 -0.0000 0.6293
vn 0.7071 -0.0000 0.7071
vn 0.6293 -0.0000 0.7771
vn 0.5446 -0.0000 0.8387
vn 0.4540 -0.0000 0.8910
vn 0.3584 -0.0000 0.9336
vn 0.2588 -0.0000 0.9659
vn 0.1564 -0.0000 0.9877
vn 0.0523 -0.0000 0.9986
vn -0.0523 -0.0000 0.9986
vn -0.1564 -0.0000 0.9877
vn -0.2588 -0.0000 0.9659
vn -0.3584 -0.0000 0.9336
vn -0.4540 -0.0000 0.8910
vn -0.5446 -0.0000 0.8387
vn -0.6293 -0.0000 0.7771
vn -0.7071 -0.0000 0.7071
vn -0.7771 -0.0000 0.6293
vn -0.8387 -0.0000 0.5446
vn -0.8910 -0.0000 0.4540
vn -0.9336 -0.0000 0.3584
vn -0.9659 -0.0000 0.2588
vn -0.9877 -0.0000 0.1564
vn -0.9986 -0.0000 0.0523
vn -0.9986 -0.0000 -0.0523
vn -0.9877 -0.0000 -0.1564
vn -0.9659 -0.0000 -0.2588
vn -0.9336 -0.0000 -0.3584
vn -0.8910 -0.0000 -0.4540
vn -0.8387 -0.0000 -0.5446
vn -0.7771 -0.0000 -0.6293
vn -0.7071 -0.0000 -0.7071
vn -0.6293 -0.0000 -0.7771
vn -0.5446 -0.0000 -0.8387
vn -0.4540 -0.0000 -0.8910
vn -0.3584 -0.0000 -0.9336
vn -0.2588 -0.0000 -0.9659
vn -0.0000 1.0000 -0.0000
vn -0.1564 -0.0000 -0.9877
vn -0.0523 -0.0000 -0.9986
vn -0.0000 -1.0000 -0.0000
vt 1.000000 0.500000
vt 1.000000 1.000000
vt 0.983333 1.000000
vt 0.983333 0.500000
vt 0.966667 1.000000
vt 0.966667 0.500000
vt 0.950000 1.000000
vt 0.950000 0.500000
vt 0.933333 1.000000
vt 0.933333 0.500000
vt 0.916667 1.000000
vt 0.916667 0.500000
vt 0.900000 1.000000
vt 0.900000 0.500000
vt 0.883333 1.000000
vt 0.883333 0.500000
vt 0.866667 1.000000
vt 0.866667 0.500000
vt 0.850000 1.000000
vt 0.850000 0.500000
vt 0.833333 1.000000
vt 0.833333 0.500000
vt 0.816667 1.000000
vt 0.816667 0.500000
vt 0.800000 1.000000
vt 0.800000 0.500000
vt 0.783334 1.000000
vt 0.783334 0.500000
vt 0.766667 1.000000
vt 0.766667 0.500000
vt 0.750000 1.000000
vt 0.750000 0.500000
vt 0.733334 1.000000
vt 0.733334 0.500000
vt 0.716667 1.000000
vt 0.716667 0.500000
vt 0.700000 1.000000
vt 0.700000 0.500000
vt 0.683334 1.000000
vt 0.683334 0.500000
vt 0.666667 1.000000
vt 0.666667 0.500000
vt 0.650000 1.000000
vt 0.650000 0.500000
vt 0.633334 1.000000
vt 0.633334 0.500000
vt 0.616667 1.000000
vt 0.616667 0.500000
vt 0.600000 1.000000
vt 0.600000 0.500000
vt 0.583334 1.000000
vt 0.583334 0.500000
vt 0.566667 1.000000
vt 0.566667 0.500000
vt 0.550000 1.000000
vt 0.550000 0.500000
vt 0.533334 1.000000
vt 0.533334 0.500000
vt 0.516667 1.000000
vt 0.516667 0.500000
vt 0.500000 1.000000
vt 0.500000 0.500000
vt 0.483334 1.000000
vt 0.483334 0.500000
vt 0.466667 1.000000
vt 0.466667 0.500000
vt 0.450000 1.000000
vt 0.450000 0.500000
vt 0.433334 1.000000
vt 0.433334 0.500000
vt 0.416667 1.000000
vt 0.416667 0.500000
vt 0.400000 1.000000
vt 0.400000 0.500000
vt 0.383334 1.000000
vt 0.383334 0.500000
vt 0.366667 1.000000
vt 0.366667 0.500000
vt 0.350000 1.000000
vt 0.350000 0.500000
vt 0.333334 1.000000
vt 0.333334 0.500000
vt 0.316667 1.000000
vt 0.316667 0.500000
vt 0.300000 1.000000
vt 0.300000 0.500000
vt 0.283334 1.000000
vt 0.283334 0.500000
vt 0.266667 1.000000
vt 0.266667 0.500000
vt 0.250000 1.000000
vt 0.250000 0.500000
vt 0.233334 1.000000
vt 0.233334 0.500000
vt 0.216667 1.000000
vt 0.216667 0.500000
vt 0.200000 1.000000
vt 0.200000 0.500000
vt 0.183334 1.000000
vt 0.183334 0.500000
vt 0.166667 1.000000
vt 0.166667 0.500000
vt 0.150000 1.000000
vt 0.150000 0.500000
vt 0.133334 1.000000
vt 0.133334 0.500000
vt 0.116667 1.000000
vt 0.116667 0.500000
vt 0.100000 1.000000
vt 0.100000 0.500000
vt 0.083334 1.000000
vt 0.083334 0.500000
vt 0.066667 1.000000
vt 0.066667 0.500000
vt 0.050000 1.000000
vt 0.050000 0.500000
vt 0.033334 1.000000
vt 0.033334 0.500000
vt 0.715354 2.325967
vt 0.523437 2.336025
vt 0.331520 2.325967
vt 0.141706 2.295903
vt -0.043925 2.246163
vt -0.223341 2.177292
vt -0.394575 2.090044
vt -0.555751 1.985376
vt -0.705103 1.864432
vt -0.840995 1.728541
vt -0.961938 1.579188
vt -1.066607 1.418012
vt -1.153855 1.246779
vt -1.222726 1.067363
vt -1.272466 0.881731
vt -1.302530 0.691917
vt -1.312587 0.500000
vt -1.302530 0.308083
vt -1.272466 0.118269
vt -1.222726 -0.067363
vt -1.153855 -0.246779
vt -1.066607 -0.418013
vt -0.961938 -0.579188
vt -0.840995 -0.728541
vt -0.705103 -0.864433
vt -0.555751 -0.985376
vt -0.394575 -1.090044
vt -0.223341 -1.177292
vt -0.043925 -1.246163
vt 0.141706 -1.295903
vt 0.331520 -1.325967
vt 0.523437 -1.336025
vt 0.715354 -1.325967
vt 0.905168 -1.295903
vt 1.090801 -1.246163
vt 1.270216 -1.177292
vt 1.441450 -1.090044
vt 1.602626 -0.985376
vt 1.751978 -0.864433
vt 1.887870 -0.728541
vt 2.008813 -0.579188
vt 2.113482 -0.418013
vt 2.200730 -0.246779
vt 2.269601 -0.067363
vt 2.319341 0.118269
vt 2.349405 0.308083
vt 2.359462 0.500000
vt 2.349405 0.691917
vt 2.319341 0.881731
vt 2.269601 1.067363
vt 2.200730 1.246779
vt 2.113482 1.418012
vt 2.008813 1.579188
vt 1.887870 1.728541
vt 1.751978 1.864432
vt 1.602626 1.985376
vt 1.441450 2.090044
vt 1.270216 2.177292
vt 1.090801 2.246163
vt 0.905168 2.295903
vt 0.016667 1.000000
vt 0.016667 0.500000
vt 0.000000 1.000000
vt 0.000000 0.500000
vt 0.527344 0.743906
vt 0.552431 0.742591
vt 0.577243 0.738662
vt 0.601508 0.732160
vt 0.624961 0.723157
vt 0.647344 0.711752
vt 0.668412 0.698070
vt 0.687935 0.682261
vt 0.705698 0.664498
vt 0.721508 0.644975
vt 0.735190 0.623906
vt 0.746595 0.601523
vt 0.755597 0.578070
vt 0.762099 0.553805
vt 0.766029 0.528993
vt 0.767344 0.503906
vt 0.766029 0.478819
vt 0.762099 0.454007
vt 0.755597 0.429742
vt 0.746595 0.406289
vt 0.735190 0.383906
vt 0.721508 0.362838
vt 0.705698 0.343315
vt 0.687935 0.325551
vt 0.668412 0.309742
vt 0.647344 0.296060
vt 0.624961 0.284655
vt 0.601508 0.275653
vt 0.577243 0.269151
vt 0.552431 0.265221
vt 0.527344 0.263906
vt 0.502257 0.265221
vt 0.477445 0.269151
vt 0.453180 0.275653
vt 0.429727 0.284655
vt 0.407344 0.296060
vt 0.386275 0.309742
vt 0.366752 0.325551
vt 0.348989 0.343315
vt 0.333180 0.362838
vt 0.319498 0.383906
vt 0.308093 0.406289
vt 0.299090 0.429742
vt 0.292588 0.454007
vt 0.288659 0.478819
vt 0.287344 0.503906
vt 0.288659 0.528993
vt 0.292588 0.553805
vt 0.299090 0.578070
vt 0.308093 0.601523
vt 0.319498 0.623906
vt 0.333180 0.644975
vt 0.348989 0.664498
vt 0.366752 0.682261
vt 0.386275 0.698070
vt 0.407344 0.711752
vt 0.429727 0.723157
vt 0.453180 0.732160
vt 0.477445 0.738662
vt 0.502257 0.742591
s 0
usemtl 
f 1/1/1 2/2/1 4/3/1 3/4/1
f 3/4/2 4/3/2 6/5/2 5/6/2
f 5/6/3 6/5/3 8/7/3 7/8/3
f 7/8/4 8/7/4 10/9/4 9/10/4
f 9/10/5 10/9/5 12/11/5 11/12/5
f 11/12/6 12/11/6 14/13/6 13/14/6
f 13/14/7 14/13/7 16/15/7 15/16/7
f 15/16/8 16/15/8 18/17/8 17/18/8
f 17/18/9 18/17/9 20/19/9 19/20/9
f 19/20/10 20/19/10 22/21/10 21/22/10
f 21/22/11 22/21/11 24/23/11 23/24/11
f 23/24/12 24/23/12 26/25/12 25/26/12
f 25/26/13 26/25/13 28/27/13 27/28/13
f 27/28/14 28/27/14 30/29/14 29/30/14
f 29/30/15 30/29/15 32/31/15 31/32/15
f 31/32/16 32/31/16 34/33/16 33/34/16
f 33/34/17 34/33/17 36/35/17 35/36/17
f 35/36/18 36/35/18 38/37/18 37/38/18
f 37/38/19 38/37/19 40/39/19 39/40/19
f 39/40/20 40/39/20 42/41/20 41/42/20
f 41/42/21 42/41/21 44/43/21 43/44/21
f 43/44/22 44/43/22 46/45/22 45/46/22
f 45/46/23 46/45/23 48/47/23 47/48/23
f 47/48/24 48/47/24 50/49/24 49/50/24
f 49/50/25 50/49/25 52/51/25 51/52/25
f 51/52/26 52/51/26 54/53/26 53/54/26
f 53/54/27 54/53/27 56/55/27 55/56/27
f 55/56/28 56/55/28 58/57/28 57/58/28
f 57/58/29 58/57/29 60/59/29 59/60/29
f 59/60/30 60/59/30 62/61/30 61/62/30
f 61/62/31 62/61/31 64/63/31 63/64/31
f 63/64/32 64/63/32 66/65/32 65/66/32
f 65/66/33 66/65/33 68/67/33 67/68/33
f 67/68/34 68/67/34 70/69/34 69/70/34
f 69/70/35 70/69/35 72/71/35 71/72/35
f 71/72/36 72/71/36 74/73/36 73/74/36
f 73/74/37 74/73/37 76/75/37 75/76/37
f 75/76/38 76/75/38 78/77/38 77/78/38
f 77/78/39 78/77/39 80/79/39 79/80/39
f 79/80/40 80/79/40 82/81/40 81/82/40
f 81/82/41 82/81/41 84/83/41 83/84/41
f 83/84/42 84/83/42 86/85/42 85/86/42
f 85/86/43 86/85/43 88/87/43 87/88/43
f 87/88/44 88/87/44 90/89/44 89/90/44
f 89/90/45 90/89/45 92/91/45 91/92/45
f 91/92/46 92/91/46 94/93/46 93/94/46
f 93/94/47 94/93/47 96/95/47 95/96/47
f 95/96/48 96/95/48 98/97/48 97/98/48
f 97/98/49 98/97/49 100/99/49 99/100/49
f 99/100/50 100/99/50 102/101/50 101/102/50
f 101/102/51 102/101/51 104/103/51 103/104/51
f 103/104/52 104/103/52 106/105/52 105/106/52
f 105/106/53 106/105/53 108/107/53 107/108/53
f 107/108/54 108/107/54 110/109/54 109/110/54
f 109/110/55 110/109/55 112/111/55 111/112/55
f 111/112/56 112/111/56 114/113/56 113/114/56
f 113/114/57 114/113/57 116/115/57 115/116/57
f 115/116/58 116/115/58 118/117/58 117/118/58
f 4/119/59 2/120/59 120/121/59 118/122/59 116/123/59 114/124/59 112/125/59 110/126/59 108/127/59 106/128/59 104/129/59 102/130/59 100/131/59 98/132/59 96/133/59 94/134/59 92/135/59 90/136/59 88/137/59 86/138/59 84/139/59 82/140/59 80/141/59 78/142/59 76/143/59 74/144/59 72/145/59 70/146/59 68/147/59 66/148/59 64/149/59 62/150/59 60/151/59 58/152/59 56/153/59 54/154/59 52/155/59 50/156/59 48/157/59 46/158/59 44/159/59 42/160/59 40/161/59 38/162/59 36/163/59 34/164/59 32/165/59 30/166/59 28/167/59 26/168/59 24/169/59 22/170/59 20/171/59 18/172/59 16/173/59 14/174/59 12/175/59 10/176/59 8/177/59 6/178/59
f 117/118/60 118/117/60 120/179/60 119/180/60
f 119/180/61 120/179/61 2/181/61 1/182/61
f 1/183/62 3/184/62 5/185/62 7/186/62 9/187/62 11/188/62 13/189/62 15/190/62 17/191/62 19/192/62 21/193/62 23/194/62 25/195/62 27/196/62 29/197/62 31/198/62 33/199/62 35/200/62 37/201/62 39/202/62 41/203/62 43/204/62 45/205/62 47/206/62 49/207/62 51/208/62 53/209/62 55/210/62 57/211/62 59/212/62 61/213/62 63/214/62 65/215/62 67/216/62 69/217/62 71/218/62 73/219/62 75/220/62 77/221/62 79/222/62 81/223/62 83/224/62 85/225/62 87/226/62 89/227/62 91/228/62 93/229/62 95/230/62 97/231/62 99/232/62 101/233/62 103/234/62 105/235/62 107/236/62 109/237/62 111/238/62 113/239/62 115/240/62 117/241/62 119/242/62
